<svg viewBox="0 0 330 200" xmlns="http://www.w3.org/2000/svg"><g><g><g><g><g><line x1="40.84375" y1="175" x2="35.84375" y2="175" style="visibility: inherit;" fill="rgb(0, 0, 0)" stroke="rgb(204, 204, 204)" stroke-width="1px"></line><line x1="40.84375" y1="161.53846153846155" x2="35.84375" y2="161.53846153846155" style="visibility: inherit;" fill="rgb(0, 0, 0)" stroke="rgb(204, 204, 204)" stroke-width="1px"></line><line x1="40.84375" y1="148.07692307692307" x2="35.84375" y2="148.07692307692307" style="visibility: inherit;" fill="rgb(0, 0, 0)" stroke="rgb(204, 204, 204)" stroke-width="1px"></line><line x1="40.84375" y1="134.6153846153846" x2="35.84375" y2="134.6153846153846" style="visibility: inherit;" fill="rgb(0, 0, 0)" stroke="rgb(204, 204, 204)" stroke-width="1px"></line><line x1="40.84375" y1="121.15384615384615" x2="35.84375" y2="121.15384615384615" style="visibility: inherit;" fill="rgb(0, 0, 0)" stroke="rgb(204, 204, 204)" stroke-width="1px"></line><line x1="40.84375" y1="107.6923076923077" x2="35.84375" y2="107.6923076923077" style="visibility: inherit;" fill="rgb(0, 0, 0)" stroke="rgb(204, 204, 204)" stroke-width="1px"></line><line x1="40.84375" y1="94.23076923076923" x2="35.84375" y2="94.23076923076923" style="visibility: inherit;" fill="rgb(0, 0, 0)" stroke="rgb(204, 204, 204)" stroke-width="1px"></line><line x1="40.84375" y1="80.76923076923077" x2="35.84375" y2="80.76923076923077" style="visibility: inherit;" fill="rgb(0, 0, 0)" stroke="rgb(204, 204, 204)" stroke-width="1px"></line><line x1="40.84375" y1="67.3076923076923" x2="35.84375" y2="67.3076923076923" style="visibility: inherit;" fill="rgb(0, 0, 0)" stroke="rgb(204, 204, 204)" stroke-width="1px"></line><line x1="40.84375" y1="53.84615384615385" x2="35.84375" y2="53.84615384615385" style="visibility: inherit;" fill="rgb(0, 0, 0)" stroke="rgb(204, 204, 204)" stroke-width="1px"></line><line x1="40.84375" y1="40.38461538461538" x2="35.84375" y2="40.38461538461538" style="visibility: inherit;" fill="rgb(0, 0, 0)" stroke="rgb(204, 204, 204)" stroke-width="1px"></line><line x1="40.84375" y1="26.923076923076923" x2="35.84375" y2="26.923076923076923" style="visibility: inherit;" fill="rgb(0, 0, 0)" stroke="rgb(204, 204, 204)" stroke-width="1px"></line><line x1="40.84375" y1="13.461538461538453" x2="35.84375" y2="13.461538461538453" style="visibility: inherit;" fill="rgb(0, 0, 0)" stroke="rgb(204, 204, 204)" stroke-width="1px"></line><line x1="40.84375" y1="0" x2="35.84375" y2="0" style="visibility: inherit;" fill="rgb(0, 0, 0)" stroke="rgb(204, 204, 204)" stroke-width="1px"></line></g><g transform="translate(30.84375, 0)"><text x="0" y="175" dx="0em" dy="0.3em" style="text-anchor: end; visibility: hidden; font-family: Roboto, sans-serif; font-size: 12px; font-weight: 200;" fill="rgb(50, 49, 63)" stroke="none" stroke-width="1px">-20</text><text x="0" y="161.53846153846155" dx="0em" dy="0.3em" style="text-anchor: end; visibility: inherit; font-family: Roboto, sans-serif; font-size: 12px; font-weight: 200;" fill="rgb(50, 49, 63)" stroke="none" stroke-width="1px">0</text><text x="0" y="148.07692307692307" dx="0em" dy="0.3em" style="text-anchor: end; visibility: hidden; font-family: Roboto, sans-serif; font-size: 12px; font-weight: 200;" fill="rgb(50, 49, 63)" stroke="none" stroke-width="1px">20</text><text x="0" y="134.6153846153846" dx="0em" dy="0.3em" style="text-anchor: end; visibility: inherit; font-family: Roboto, sans-serif; font-size: 12px; font-weight: 200;" fill="rgb(50, 49, 63)" stroke="none" stroke-width="1px">40</text><text x="0" y="121.15384615384615" dx="0em" dy="0.3em" style="text-anchor: end; visibility: hidden; font-family: Roboto, sans-serif; font-size: 12px; font-weight: 200;" fill="rgb(50, 49, 63)" stroke="none" stroke-width="1px">60</text><text x="0" y="107.6923076923077" dx="0em" dy="0.3em" style="text-anchor: end; visibility: inherit; font-family: Roboto, sans-serif; font-size: 12px; font-weight: 200;" fill="rgb(50, 49, 63)" stroke="none" stroke-width="1px">80</text><text x="0" y="94.23076923076923" dx="0em" dy="0.3em" style="text-anchor: end; visibility: hidden; font-family: Roboto, sans-serif; font-size: 12px; font-weight: 200;" fill="rgb(50, 49, 63)" stroke="none" stroke-width="1px">100</text><text x="0" y="80.76923076923077" dx="0em" dy="0.3em" style="text-anchor: end; visibility: inherit; font-family: Roboto, sans-serif; font-size: 12px; font-weight: 200;" fill="rgb(50, 49, 63)" stroke="none" stroke-width="1px">120</text><text x="0" y="67.3076923076923" dx="0em" dy="0.3em" style="text-anchor: end; visibility: hidden; font-family: Roboto, sans-serif; font-size: 12px; font-weight: 200;" fill="rgb(50, 49, 63)" stroke="none" stroke-width="1px">140</text><text x="0" y="53.84615384615385" dx="0em" dy="0.3em" style="text-anchor: end; visibility: inherit; font-family: Roboto, sans-serif; font-size: 12px; font-weight: 200;" fill="rgb(50, 49, 63)" stroke="none" stroke-width="1px">160</text><text x="0" y="40.38461538461538" dx="0em" dy="0.3em" style="text-anchor: end; visibility: hidden; font-family: Roboto, sans-serif; font-size: 12px; font-weight: 200;" fill="rgb(50, 49, 63)" stroke="none" stroke-width="1px">180</text><text x="0" y="26.923076923076923" dx="0em" dy="0.3em" style="text-anchor: end; visibility: inherit; font-family: Roboto, sans-serif; font-size: 12px; font-weight: 200;" fill="rgb(50, 49, 63)" stroke="none" stroke-width="1px">200</text><text x="0" y="13.461538461538453" dx="0em" dy="0.3em" style="text-anchor: end; visibility: hidden; font-family: Roboto, sans-serif; font-size: 12px; font-weight: 200;" fill="rgb(50, 49, 63)" stroke="none" stroke-width="1px">220</text><text x="0" y="0" dx="0em" dy="0.3em" style="text-anchor: end; visibility: hidden; font-family: Roboto, sans-serif; font-size: 12px; font-weight: 200;" fill="rgb(50, 49, 63)" stroke="none" stroke-width="1px">240</text></g><line x1="40.84375" y1="0" x2="40.84375" y2="175" fill="rgb(0, 0, 0)" stroke="rgb(204, 204, 204)" stroke-width="1px"></line></g></g><g transform="translate(40, 0)" clip-path="url(#clip_0)"><clipPath id="clip_0"><rect width="289" height="175"></rect></clipPath><g><g><g><line x1="0" y1="0" x2="0" y2="175" fill="rgb(0, 0, 0)" stroke="rgb(60, 60, 60)" stroke-width="1px" opacity="0.25"></line><line x1="24.096354166666664" y1="0" x2="24.096354166666664" y2="175" fill="rgb(0, 0, 0)" stroke="rgb(60, 60, 60)" stroke-width="1px" opacity="0.25"></line><line x1="48.19270833333333" y1="0" x2="48.19270833333333" y2="175" fill="rgb(0, 0, 0)" stroke="rgb(60, 60, 60)" stroke-width="1px" opacity="0.25"></line><line x1="72.2890625" y1="0" x2="72.2890625" y2="175" fill="rgb(0, 0, 0)" stroke="rgb(60, 60, 60)" stroke-width="1px" opacity="0.25"></line><line x1="96.38541666666666" y1="0" x2="96.38541666666666" y2="175" fill="rgb(0, 0, 0)" stroke="rgb(60, 60, 60)" stroke-width="1px" opacity="0.25"></line><line x1="120.48177083333334" y1="0" x2="120.48177083333334" y2="175" fill="rgb(0, 0, 0)" stroke="rgb(60, 60, 60)" stroke-width="1px" opacity="0.25"></line><line x1="144.578125" y1="0" x2="144.578125" y2="175" fill="rgb(0, 0, 0)" stroke="rgb(60, 60, 60)" stroke-width="1px" opacity="0.25"></line><line x1="168.67447916666669" y1="0" x2="168.67447916666669" y2="175" fill="rgb(0, 0, 0)" stroke="rgb(60, 60, 60)" stroke-width="1px" opacity="0.25"></line><line x1="192.77083333333331" y1="0" x2="192.77083333333331" y2="175" fill="rgb(0, 0, 0)" stroke="rgb(60, 60, 60)" stroke-width="1px" opacity="0.25"></line><line x1="216.8671875" y1="0" x2="216.8671875" y2="175" fill="rgb(0, 0, 0)" stroke="rgb(60, 60, 60)" stroke-width="1px" opacity="0.25"></line><line x1="240.96354166666669" y1="0" x2="240.96354166666669" y2="175" fill="rgb(0, 0, 0)" stroke="rgb(60, 60, 60)" stroke-width="1px" opacity="0.25"></line><line x1="265.0598958333333" y1="0" x2="265.0598958333333" y2="175" fill="rgb(0, 0, 0)" stroke="rgb(60, 60, 60)" stroke-width="1px" opacity="0.25"></line><line x1="289.15625" y1="0" x2="289.15625" y2="175" fill="rgb(0, 0, 0)" stroke="rgb(60, 60, 60)" stroke-width="1px" opacity="0.25"></line></g><g><line x1="0" y1="175" x2="289.15625" y2="175" fill="rgb(0, 0, 0)" stroke="rgb(60, 60, 60)" stroke-width="1px" opacity="0.25"></line><line x1="0" y1="161.53846153846155" x2="289.15625" y2="161.53846153846155" fill="rgb(0, 0, 0)" stroke="rgb(60, 60, 60)" stroke-width="1px" opacity="0.25"></line><line x1="0" y1="148.07692307692307" x2="289.15625" y2="148.07692307692307" fill="rgb(0, 0, 0)" stroke="rgb(60, 60, 60)" stroke-width="1px" opacity="0.25"></line><line x1="0" y1="134.6153846153846" x2="289.15625" y2="134.6153846153846" fill="rgb(0, 0, 0)" stroke="rgb(60, 60, 60)" stroke-width="1px" opacity="0.25"></line><line x1="0" y1="121.15384615384615" x2="289.15625" y2="121.15384615384615" fill="rgb(0, 0, 0)" stroke="rgb(60, 60, 60)" stroke-width="1px" opacity="0.25"></line><line x1="0" y1="107.6923076923077" x2="289.15625" y2="107.6923076923077" fill="rgb(0, 0, 0)" stroke="rgb(60, 60, 60)" stroke-width="1px" opacity="0.25"></line><line x1="0" y1="94.23076923076923" x2="289.15625" y2="94.23076923076923" fill="rgb(0, 0, 0)" stroke="rgb(60, 60, 60)" stroke-width="1px" opacity="0.25"></line><line x1="0" y1="80.76923076923077" x2="289.15625" y2="80.76923076923077" fill="rgb(0, 0, 0)" stroke="rgb(60, 60, 60)" stroke-width="1px" opacity="0.25"></line><line x1="0" y1="67.3076923076923" x2="289.15625" y2="67.3076923076923" fill="rgb(0, 0, 0)" stroke="rgb(60, 60, 60)" stroke-width="1px" opacity="0.25"></line><line x1="0" y1="53.84615384615385" x2="289.15625" y2="53.84615384615385" fill="rgb(0, 0, 0)" stroke="rgb(60, 60, 60)" stroke-width="1px" opacity="0.25"></line><line x1="0" y1="40.38461538461538" x2="289.15625" y2="40.38461538461538" fill="rgb(0, 0, 0)" stroke="rgb(60, 60, 60)" stroke-width="1px" opacity="0.25"></line><line x1="0" y1="26.923076923076923" x2="289.15625" y2="26.923076923076923" fill="rgb(0, 0, 0)" stroke="rgb(60, 60, 60)" stroke-width="1px" opacity="0.25"></line><line x1="0" y1="13.461538461538453" x2="289.15625" y2="13.461538461538453" fill="rgb(0, 0, 0)" stroke="rgb(60, 60, 60)" stroke-width="1px" opacity="0.25"></line><line x1="0" y1="0" x2="289.15625" y2="0" fill="rgb(0, 0, 0)" stroke="rgb(60, 60, 60)" stroke-width="1px" opacity="0.25"></line></g></g></g><g><g><line x1="0" y1="161.53846153846155" x2="289.15625" y2="161.53846153846155" fill="rgb(0, 0, 0)" stroke="rgb(153, 153, 153)" stroke-width="1.5px"></line></g></g><g><g><line x1="24.096354166666664" y1="0" x2="24.096354166666664" y2="175" fill="rgb(0, 0, 0)" stroke="rgb(153, 153, 153)" stroke-width="1.5px"></line></g></g><g><g><g><g><g><path stroke="rgb(255, 112, 67)" stroke-width="2px" d="M24.698763020833333,153.46153846153845L24.819244791666666,153.88221153846155L25.301171874999998,155.0412087912088L25.421653645833334,155.5525311085973L25.6626171875,156.1052687770245L25.783098958333333,156.4080574031232L25.903580729166666,156.58042897343378L26.144544270833336,156.95454103002064L26.26502604166667,156.90297417367972L26.3855078125,156.8723686752315L26.50598958333333,156.85412424565473L26.987916666666667,157.11303814659897L28.072252604166664,157.53760817511323L28.192734375,157.79199502242517L28.433697916666667,157.67514207095192L28.795143229166666,157.60506547319272L28.915625000000002,157.8323085178027L29.156588541666665,157.96862972468824L29.397552083333334,157.78116641155336L29.518033854166667,157.6686957348259L29.758997395833333,157.60121596059506L29.9999609375,157.56072904346132L30.120442708333336,157.53643723423704L30.481888020833335,157.79109431643536L30.602369791666668,157.94388779348824L30.7228515625,157.76633237321585L30.843333333333334,157.65979931489395L30.963815104166667,157.59587954968362L31.32526041666667,157.55752771567919L31.4457421875,157.53451662432036L31.68670572916667,157.52070997276084L31.92766927083333,157.5124259829972L32.04815104166667,157.50745558956098L32.1686328125,157.50447335365115L32.28911458333333,157.77191478601895L32.65055989583333,157.93237964249727L32.77104166666666,157.759427784428L32.8915234375,157.6556566702715L33.012005208333335,157.59339400202418L33.25296875,157.82526717075524L33.6144140625,157.69516030234877L34.216822916666665,157.88632695073204L34.3373046875,157.7317961703946L34.45778645833334,157.6390777022207L34.57826822916667,157.58344662132663L34.69875,157.81929874204147L34.81923177083333,157.69157924522008L35.421640625,157.61494754713036L36.385494791666666,157.56896852827757L36.74694010416666,157.54138111696633L36.867421875,157.52482867017972L37.71079427083333,157.78412797133936L38.07223958333333,157.93970755203466L38.313203125,157.76382453122062L38.43368489583333,157.92752548796324L38.55416666666667,158.02574606200875L39.03609375,158.08467840643604L39.15657552083333,157.85080704386158L39.277057291666665,157.71048422631694L39.63850260416667,157.62629053579016L39.758984375000004,157.57577432147409L40.12042968750001,157.54546459288446L40.60235677083333,157.52727875573066L40.8433203125,157.5163672534384L41.08428385416667,157.7790511212938L41.20476562499999,157.66743067277628L41.32524739583333,157.60045840366578L41.445729166666666,157.56027504219946L41.92765625,157.5361650253197L42.16861979166667,157.52169901519179L42.53006510416667,157.5130194091151L42.650546874999996,157.50781164546905L42.77102864583333,157.7739177565122L43.0119921875,157.66435065390732L43.132473958333335,157.5986103923444L43.25295572916667,157.55916623540665L43.61440104166667,157.53549974124397L43.85536458333333,157.5212998447464L43.97584635416666,157.51277990684784L44.216809895833336,157.5076679441087L44.337291666666665,157.773831535696L44.69873697916666,157.93352969064836L45.30114583333334,157.76011781438902L45.421627604166666,157.6560706886334L45.542109375,157.59364241318005L45.78307291666666,157.55618544790804L45.9035546875,157.80294203797558L46.144518229166664,157.68176522278534L46.38548177083334,157.60905913367122L46.50596354166667,157.56543548020272L46.6264453125,157.53926128812165L46.74692708333333,157.52355677287298L46.987890625,157.5141340637238L47.10837239583333,157.50848043823427L47.95174479166667,157.50508826294055L48.433671875,157.50305295776434L48.915598958333334,157.77106254388937L49.03608072916667,157.66263752633364L49.15656250000001,157.59758251580018L49.63848958333333,157.28931874024934L49.999934895833334,157.37359124414962L50.36138020833333,157.42415474648976L50.481861979166666,157.45449284789385L50.84330729166667,157.47269570873632L50.9637890625,157.75284819447256L51.20475260416667,157.9209396859143L51.325234375,157.75256381154858L51.44571614583333,157.65153828692914L51.686679687499996,157.5909229721575L51.80716145833333,157.82378455252527L52.048125,157.69427073151516L52.168606770833335,157.61656243890909L52.28908854166667,157.56993746334547L52.65053385416667,157.81119324723804L53.01197916666666,157.68671594834285L53.61438802083334,157.6120295690057L53.8553515625,157.83644851063417L54.09631510416666,157.7018691063805L54.216796875,157.89035223305908L54.81920572916666,158.0034421090662L55.180651041666664,157.80206526543972L55.3011328125,157.68123915926384L55.42161458333334,157.60874349555831L55.54209635416667,157.2960153281042L55.78305989583333,157.37760919686252L56.264986979166665,157.4265655181175L56.50595052083333,157.45593931087052L56.746914062500004,157.20433281729154L56.98787760416667,157.32259969037491L57.59028645833333,157.39355981422494L57.831250000000004,157.43613588853498L58.31317708333333,156.92321999465943L58.9155859375,150.96162430448797L59.15654947916667,150.8846668903851L59.27703124999999,151.64618474961566L59.638476562499996,152.91078777284633L59.87944010416667,153.93878035601549L59.999921875,154.2863451366862L60.120403645833335,155.03334554355018L60.3613671875,155.48154578766858L60.48184895833333,155.7504659341396L60.60233072916667,155.91181802202223L61.0842578125,156.27786004398257L61.204739583333335,156.4974852571588L61.445703125,156.89849115429527L61.8071484375,157.13909469257717L62.289075520833336,157.28345681554632L62.409557291666665,157.37007408932777L62.5300390625,156.88358291513512L62.65052083333334,157.13014974908108L62.891484375,157.0088590802179L63.2529296875,156.6668539096692L63.37341145833334,156.46165080733996L63.493893229166666,156.33852894594244L63.85533854166666,155.7261942906424L63.9758203125,155.35879349746236L64.21678385416666,154.86912225232356L64.93967447916667,153.22916565908645L65.18063802083333,150.89903785699033L65.54208333333332,144.38557656034803L65.66256510416666,143.16980747467036L65.90352864583333,141.0941921771099L66.02401041666667,133.1180537678044L66.62641927083332,122.67852456837495L66.74690104166666,124.76096089487112L66.98786458333333,118.2027303830765L67.228828125,106.99856130676899L67.34930989583333,118.31452139944601L67.46979166666667,124.83486668582144L67.83123697916666,128.7470738576467L67.95171875,124.09439816074186L68.3131640625,127.2258696656759L68.43364583333333,128.297060260944L68.674609375,130.01669769502791L68.79509114583334,130.51001861701675L69.0360546875,129.99831886251775L69.51798177083333,120.53745285597218L69.63846354166667,112.16862555973715L69.7589453125,119.80117533584229L69.99990885416668,120.88070520150538L70.120390625,127.72073081321093L70.4818359375,125.36320771869578L70.60231770833333,123.41023232352516L70.72279947916667,121.96921631719202L70.84328125,124.33537594416137L71.08424479166666,121.44737941265068L71.2047265625,114.86842764759041L71.32520833333334,120.0749027424004L71.44569010416666,116.46801856851715L72.53002604166667,110.53465729495646L72.6505078125,117.47464053082003L72.89147135416667,119.75401508772278L73.25291666666668,124.89087059109522L74.09628906249999,121.78067620081099L74.21677083333333,115.0684057204866L74.69869791666667,116.42565881690734L74.8191796875,115.62462605937517L74.93966145833333,117.02862178947126L75.180625,120.29409615060584L75.42158854166667,118.75338076728656L75.903515625,118.63664384498733L76.9878515625,122.33583246083856L77.10833333333333,121.0553456303493L77.22881510416667,121.3639766089788L77.34929687500001,123.16453981154112L77.59026041666667,123.43718542538623L77.7107421875,127.90846510138559L78.0721875,131.12969444544675L78.4336328125,131.7162782057296L79.27700520833334,134.49130538497622L79.39748697916667,132.6563216925242L79.51796875000001,136.40148532320683L79.63845052083333,137.0331988862318L79.8794140625,136.8737654855852L79.99989583333334,134.35502852212036L80.12037760416668,131.22840172865682L80.36134114583332,135.54473334488642L80.48182291666666,124.94222462231647L80.6023046875,123.6961040041591L80.84326822916667,129.40997009480316L81.08423177083333,133.3767512876511L81.20471354166666,133.06451231105223L81.686640625,135.56947661740054L82.53001302083332,136.53399366274803L82.89145833333333,138.72808850534113L83.01194010416667,136.27531464166623L83.25290364583333,139.38057340038435L83.4938671875,138.012959424846L83.8553125,138.00008334721528L85.18061197916666,134.76158846986763L85.54205729166667,137.12618385115135L85.6625390625,140.9680180029985L85.78302083333334,138.96542618641448L86.023984375,139.37925571184869L86.26494791666667,138.55063035018614L86.38542968750001,117.86114744088091L86.62639322916667,126.9859192337593L87.22880208333333,132.9992438479479L87.34928385416666,128.79954630876875L88.07217447916666,132.20280470833816L88.31313802083334,131.28322128654136L88.43361979166667,135.30839431038635L88.55410156250001,132.33888274007796L88.67458333333333,135.67256041327755L88.79506510416667,136.865074709505L88.915546875,139.7344294410876L89.03602864583334,131.7637345877295L89.15651041666668,134.2505484449454L89.27699218750001,138.4349444515826L89.39747395833332,140.13788974787266L89.6384375,138.46734923333898L89.9998828125,139.61887107846493L90.12036458333333,138.96363033938664L90.24084635416666,135.878178203632L90.48180989583334,138.6038299991023L90.96373697916667,139.43152876869212L91.20470052083334,131.04353264583068L91.44566406249999,131.39535035672915L91.92759114583333,135.37567175249904L92.04807291666667,136.95617228226865L92.16855468749999,137.3660110616689L92.40951822916666,137.34268356007826L92.65048177083334,138.9440716745085L92.8914453125,123.4818276200897L93.13240885416667,130.62755811051537L93.252890625,125.49191948169384L93.6143359375,118.91053630440092L93.85529947916666,92.34632178264056L93.97578125,66.1770238388151L94.09626302083333,50.47544507251985L94.21674479166666,50.74680550505035L94.33722656249999,41.21731407226098L94.45770833333333,35.49961921258735L94.698671875,32.06900229678318L94.81915364583334,30.010632147300683L95.42156250000001,28.775610057611203L95.54204427083334,28.034596803797495L95.7830078125,27.589988851509247L95.90348958333334,27.323224080136338L96.02397135416668,27.163165217312596L96.38541666666666,27.06712989961832L96.62638020833333,33.471047170540224L96.86734375,30.85185907155493L97.10830729166666,29.280346212163735L97.34927083333334,28.337438496529L97.59023437500001,27.77169386714818L97.71071614583333,27.43224708951969L97.83119791666667,27.228579022942583L98.19264322916668,27.106378182996323L98.6745703125,27.03305767902858L98.79505208333333,26.989065376647915L99.036015625,26.962669995219517L99.15649739583333,26.946832766362487L99.3974609375,26.937330429048277L99.87938802083333,26.93162902665974L100.48179687499999,26.928208185226605L101.32516927083333,26.92615568036673L101.44565104166666,26.92492417745081L101.68661458333334,26.924185275701255L101.80709635416667,26.923741934651538L101.927578125,26.923475930021674L102.04805989583333,26.923316327243775L102.16854166666667,26.92322056557705L102.2890234375,26.923163108576993L102.52998697916667,28.807744018992363L102.65046875,28.05387718062619L103.13239583333333,27.601557077606472L103.25287760416666,27.33016501579467L103.49384114583333,27.167329778707565L103.7348046875,27.069628636455313L104.09625,27.01100795110397L104.33721354166667,26.975835539893158L104.45769531250001,26.954732093166662L104.57817708333334,26.942070025130764L104.93962239583334,26.934472784309214L105.06010416666668,26.9299144398163L105.1805859375,26.927179433120557L105.30106770833333,26.925538429103096L105.42154947916666,26.924553826692623L105.66251302083333,26.923963065246348L105.78299479166667,26.923608608378583L105.9034765625,26.923395934257936L106.14444010416666,26.923268329785525L106.264921875,26.923191767102097L106.38540364583334,26.92314582949204L106.50588541666667,26.923118266925993L106.62636718750001,26.92310172938635L106.74684895833333,26.923091806862583L106.9878125,26.923085853348315L107.10829427083334,26.92308228123975L107.46973958333332,26.923080137974615L107.95166666666667,26.923078852015557L108.31311197916666,26.923078080440117L108.43359375,26.923077617494844L108.55407552083334,26.92307733972767L108.7950390625,26.923077173067377L108.91552083333333,26.9230770730712L109.03600260416667,26.923077013073488L109.156484375,26.92307697707486L109.39744791666668,26.92307695547567L109.51792968749999,26.923076942516182L109.63841145833332,26.923076934740482L110.12033854166667,26.92307693007506L110.602265625,26.9230769272758L110.72274739583334,26.92307692559627L110.9637109375,26.923076924588532L111.08419270833333,26.923076923983906L111.20467447916667,26.92307692362111L111.32515625,26.92307692340343L111.44563802083334,26.923076923272827L111.56611979166667,26.92307692319447L111.92756510416666,26.923076923147452L112.048046875,26.92307692311924L112.7709375,26.923076923102318L113.01190104166666,26.923076923092175L113.1323828125,26.923076923086075L113.25286458333333,26.923076923082423L113.37334635416667,26.92307692308021L113.61430989583334,26.923076923078906L113.97575520833334,26.92307692307811L114.09623697916668,26.923076923077645L114.45768229166666,26.92307692307737L114.5781640625,26.923076923077197L114.69864583333333,26.92307692307708L114.939609375,26.923076923077023L115.18057291666666,26.923076923076984L115.54201822916667,26.923076923076962L115.66250000000001,26.923076923076962L115.90346354166667,26.923076923076962L116.26490885416668,26.923076923076962L116.38539062500001,26.923076923076962L116.50587239583332,26.923076923076962L116.7468359375,26.923076923076962L116.86731770833333,26.923076923076962L116.98779947916667,26.923076923076962L117.22876302083333,37.692307692307736L117.34924479166666,33.38461538461539L117.4697265625,30.800000000000008L118.07213541666667,44.86461538461539L118.55406249999999,57.611076923076915L118.67454427083332,45.33587692307692L118.9155078125,37.97075692307693L119.15647135416667,46.205531076923094L119.39743489583333,54.37716479999999L119.51791666666666,68.70322195692307L119.6383984375,93.72193317415383L119.75888020833334,106.84854451987694L119.87936197916667,107.18604978884925L119.99984375,75.08086064254032L120.24080729166667,90.54851638552418L120.48177083333334,100.36757136977606L120.722734375,107.87438897571178L121.0841796875,75.49386415465783L121.32514322916666,56.06554926202546L121.44562499999999,44.40856032644605L121.56610677083333,37.4143669650984L122.04803385416666,33.21785094828983L122.28899739583333,30.699941338204667L122.40947916666667,29.18919557215357L122.65044270833334,28.282748112522903L123.01188802083334,27.738879636744514L123.2528515625,27.412558551277478L123.37333333333333,27.216765899997245L123.49381510416666,27.099290309229133L123.85526041666667,27.02880495476826L124.21670572916666,73.02497528055325L124.3371875,54.58421593756274L124.57815104166667,49.17360648561457L124.81911458333333,50.234933122137974L125.060078125,52.21788295020587L125.66248697916666,42.09996053935429L125.90345052083333,36.029207092843365L126.02393229166667,32.38675502493678L126.1444140625,30.20128378419285L126.26489583333333,28.890001039746483L126.62634114583334,28.10323139307868L127.34923177083334,27.631169605077986L127.59019531249999,28.42485560920064L127.71067708333332,40.47799028859732L127.83115885416666,35.05602494238916L127.951640625,44.72592265774118L128.07212239583333,50.79709205618315L128.55404947916668,41.247486002940676L128.79501302083335,35.517722370995166L128.91549479166667,37.46447957644328L129.27694010416667,33.24791851509674L129.397421875,30.71798187828881L129.51790364583334,33.2384814346656L129.63838541666667,39.32770424541473L129.7588671875,34.36585331647962L129.99983072916666,31.38874275911855L130.1203125,29.602476424701905L130.24079427083333,28.5307166240519L130.36127604166666,33.81073766673883L130.60223958333333,42.09413490773561L130.96368489583335,36.025711713872134L131.2046484375,32.384657797554055L131.32513020833332,31.815410063147812L131.56609375,35.512322960965605L131.68657552083334,44.192009161194754L132.04802083333334,45.09212857363993L132.16850260416666,37.82450791341472L132.40946614583333,33.463935517279594L132.52994791666666,30.847592079598527L133.3733203125,57.54701678622067L133.49380208333332,49.60513314865546L133.61428385416667,69.07077219688559L133.734765625,82.63477101043905L133.85524739583332,83.50393952934036L133.97572916666667,91.83313294837343L134.0962109375,94.67680284594715L134.33717447916666,67.57531247679906L134.45765625,56.699033639925595L134.57813802083334,44.78865095318613L134.93958333333333,37.642421341142466L135.06006510416668,36.58545280468547L135.180546875,32.720502452042055L135.30102864583333,32.01691685584062L135.5419921875,29.97938088273513L136.2648828125,28.75685929887186L136.38536458333334,28.023346348553893L136.50584635416666,27.583238578363098L136.74680989583334,27.31917391624862L137.22873697916668,36.04535050359535L137.59018229166668,35.62721030215722L137.95162760416667,32.145556950525105L138.4335546875,40.825795708776596L138.795,42.26470819449672L138.91548177083334,36.12805568592879L139.03596354166666,38.09991033463419L139.27692708333333,33.629176970011294L139.39740885416666,31.485198489699076L139.517890625,38.00650370920406L139.8793359375,33.573132994753195L139.99981770833335,30.913110566082693L140.24078125,29.317097108880393L140.48174479166667,28.35948903455901L140.6022265625,27.784924189966194L140.84319010416667,27.440185283210482L141.08415364583334,35.31026501608016L141.20463541666666,31.955389778878846L141.44559895833333,37.48092617501962L141.6865625,39.719324935780996L141.80704427083333,46.446979576853224L141.92752604166668,43.752803130727315L142.0480078125,51.29014341689794L142.409453125,53.9279322039849L142.52993489583332,58.20291316854479L142.65041666666667,61.30636328574227L143.01186197916667,47.55304874067612L143.13234375,40.37798309055951L144.09619791666668,34.99602062356647L144.45764322916668,31.76684314337064L144.578125,29.829336655253158L144.81908854166667,28.66683276238267L145.06005208333335,40.892407349737276L145.18053385416667,35.304675179073136L145.54197916666666,31.952035876674653L145.66246093750001,29.94045229523558L145.9034244791667,28.73350214637212L146.02390625,33.66317821090018L146.14438802083333,35.005599234232406L146.26486979166668,31.772590309770223L146.62631510416668,36.563554185862145L147.59016927083331,37.28428635767114L147.71065104166667,41.75518719921807L147.8311328125,44.70695847337699L148.07209635416666,38.40109816094927L148.31305989583333,33.80988966580034L148.43354166666666,31.055164568710968L148.5540234375,29.40232951045734L148.79498697916665,28.41062847550518L149.03595052083332,27.815607854533873L149.15643229166668,27.458595481951107L149.2769140625,27.244388058401434L149.638359375,27.115863604271635L149.75884114583334,27.038748931793766L149.87932291666667,40.992480128307015L150.48173177083333,35.364718846215005L150.7226953125,31.988062076959793L150.84317708333333,29.962068015406636L151.084140625,28.746471578474743L151.20462239583335,29.90172910093101L151.44558593750003,28.71026822978939L152.1684765625,27.995391707104396L152.2889583333333,27.56646579349342L152.52992187499999,37.001417937634514L152.77088541666666,32.97008153181149L153.2528125,30.551279688317646L153.49377604166668,29.099998582221385L153.73473958333332,28.2292299185636L153.975703125,27.706768720368938L154.21666666666667,27.393292001452153L154.45763020833334,27.205205970102053L154.57811197916666,27.092354351292006L154.69859375000001,27.02464338000599L154.81907552083334,42.3301706433882L154.9395572916667,59.051948539879085L155.421484375,68.81578450854283L155.66244791666668,71.17408608974108L155.78292968749997,71.51214396153698L156.5058203125,74.9457479153837L156.74678385416667,67.58283336461486L156.98774739583334,65.58816155723044L157.10822916666666,66.2759738574152L157.22871093749998,62.91943046829527L157.9516015625,48.52088905020794L158.313046875,39.881764199355544L158.55401041666667,34.69828928884411L158.91545572916667,36.43435818869107L159.27690104166666,60.09138414398387L159.3973828125,65.13175356331341L159.63834635416669,49.84828290721881L159.758828125,40.67820051356206L159.87930989583333,37.32999723121416L159.99979166666668,33.16722910795926L160.24075520833335,30.66956823400633L160.36123697916665,29.17097170963458L160.60220052083332,28.810275333473044L160.72268229166664,28.055395969314603L160.8431640625,27.60246835081954L161.204609375,42.13840408741482L161.3250911458333,36.32150399091042L161.56605468749999,32.56213316377704L162.52990885416668,30.306510667496994L162.650390625,28.95313716972896L162.77087239583332,28.141113071068155L162.89135416666667,35.1923601503332L163.25279947916667,31.8846468594307L163.37328125,29.900018884889214L163.49376302083334,28.70924210016431L163.85520833333334,27.994776029329362L163.9756901041667,27.566096386828395L164.096171875,27.308888601327798L164.4576171875,35.23148700695054L165.9033984375,47.254276819554946L166.26484374999998,39.12179686096373L166.50580729166666,34.242308885809L166.6262890625,31.314616100716183L166.86725260416665,32.519538891198955L166.987734375,37.81941564241168L167.3491796875,33.46088015467778L167.710625,30.845758862037453L167.83110677083334,29.27668608645324L167.95158854166667,28.335242421102723L168.07207031250002,27.770376221892413L168.19255208333334,57.58530265621237L168.31303385416666,48.28195082449665L168.433515625,58.85378587931336L168.55399739583333,69.23534845066494L168.7949609375,52.31043983962973L169.03592447916668,42.1554946730086L169.15640625,37.677912188420535L169.39736979166665,33.37597808228308L169.63833333333332,30.794817618600625L169.879296875,29.246121340391156L169.99977864583332,40.43228818885009L170.12026041666667,43.91321906715622L170.2407421875,52.46331605567834L170.3612239583333,44.939528094945494L170.48170572916666,37.732947626198055L170.9636328125,47.13976857571883L171.56604166666668,39.053091914662076L171.6865234375,34.20108591802801L171.92748697916667,31.289882320047575L172.04796875,29.543160161259312L172.52989583333334,28.495126865986357L172.65037760416666,27.866306888822596L172.77085937500001,27.48901490252433L173.0118229166667,27.262639710745376L173.37326822916668,27.126814595678002L173.73471354166668,27.045319526637588L173.97567708333335,26.996422485213333L174.216640625,26.96708426035877L174.33712239583332,26.94948132544604L174.5780859375,26.93891956449841L174.69856770833331,26.932582507929812L175.06001302083334,46.851857197065584L175.18049479166666,60.1495758567009L175.30097656249998,46.8589762832513L175.54194010416666,38.88461653918157L175.662421875,34.100000692739705L175.78290364583333,31.229231184874617L176.0238671875,29.506769480155548L176.14434895833332,28.473292457324106L176.26483072916668,27.853206243625234L176.3853125,27.481154515405926L176.50579427083335,27.257923478474314L176.62627604166667,27.12398485631537L177.22868489583334,27.043621683019992L177.34916666666666,26.995403779042764L177.59013020833333,26.96647303665643L178.07205729166668,37.179883821993876L178.1925390625,34.15408413935017L178.43350260416665,31.261681252840862L178.9154296875,29.52623952093529L179.15639322916667,28.484974481791944L179.3973567708333,27.860215458305948L179.63832031249999,27.485360044214328L179.75880208333334,27.260446795759368L179.87928385416666,27.125498846686387L179.999765625,27.04453007724258L180.24072916666665,26.995948815576334L180.60217447916668,26.96680005857657L180.72265625,26.94931080437673L180.96361979166667,26.938817251856815L181.0841015625,26.932521120344855L181.20458333333335,26.928743441437692L181.445546875,29.888015295631863L181.92747395833334,28.70203994660988L182.1684375,49.259685506427466L182.28891927083333,61.86350361154879L182.5298828125,58.11810216692929L182.65036458333336,45.64009206938834L183.01180989583335,38.15328601086378L183.13229166666665,33.66120237574903L183.73470052083331,30.96595219468018L183.85518229166667,29.348802086038884L183.9756640625,28.378512020854128L184.09614583333334,28.87326105866632L184.33710937499998,28.093187404430562L184.57807291666666,37.85591244265833L184.6985546875,33.482778234825766L184.81903645833333,30.858897710126243L184.93951822916665,29.284569395306512L185.06,28.339972406414667L185.18048177083332,27.77321421307958L185.54192708333335,27.43315929707851L185.90337239583334,27.229126347477873L186.14433593750002,27.106706577717492L186.38529947916666,27.033254715861286L186.50578125,26.98918359874753L186.62626302083333,26.962740928479295L186.74674479166669,38.25456763401066L186.8672265625,33.72197134963718L187.34915364583335,33.15625973285923L187.83108072916664,30.662986608946316L188.07204427083332,29.167022734598564L188.19252604166667,28.26944440998991L188.55397135416666,27.730897415224714L188.67445312499999,27.40776921836559L188.79493489583334,27.213892300250127L189.15638020833333,27.09756614938086L189.51782552083333,27.027770458859283L189.63830729166668,26.98589304454635L189.7587890625,26.960766595958585L189.99975260416667,26.94569072680592L190.120234375,26.93664520531433L190.24071614583335,26.93121789241937L190.60216145833334,33.92796150468239L190.84312500000001,31.126007672040224L190.96360677083334,29.4448353724549L191.0840885416667,28.436131992703725L191.2045703125,27.830909964853L191.32505208333333,27.467776748142587L191.44553385416668,27.249896818116337L191.68649739583336,27.119168860100576L191.80697916666668,40.77150131606035L192.16842447916665,35.77059309732853L192.77083333333331,36.27004816608942L194.21661458333332,32.531259668884424L194.33709635416668,30.287986570561415L194.457578125,28.94202271156763L194.57805989583335,28.13444439617134L195.05998697916667,34.919128176164364L195.42143229166666,31.720707674929393L195.5419140625,30.60934768188071L195.78287760416669,40.98099322451304L195.903359375,35.35782670393858L196.02384114583333,45.17623448390161L196.14432291666668,37.87497145957173L196.38528645833335,51.53267518343536L196.62625000000003,41.68883587929197L196.74673177083332,52.205609219882874L196.86721354166664,47.47721168577588L197.10817708333332,59.98632701146553L197.22865885416667,67.22256543764854L197.349140625,63.756616185666054L197.59010416666666,49.02320048063041L197.83106770833334,47.721612596070536L198.55395833333333,60.940659865334645L198.794921875,69.41054976535463L199.39733072916667,52.415560628443544L199.5178125,42.21856714629691L199.99973958333334,39.60037105700893L200.6021484375,34.52945340343612L200.72263020833336,31.486902811292452L201.20455729166665,33.161372456006234L201.686484375,34.70451578129604L202.0479296875,31.591940238008387L202.40937499999998,29.724394912035816L202.52985677083333,28.60386771645227L202.65033854166666,27.931551399102144L203.01178385416665,27.528161608692045L203.132265625,27.28612773444601L203.4937109375,27.14090740989839L203.73467447916667,27.05377521516981L203.85515625,27.001495898332653L203.97563802083334,26.97012830823037L204.81901041666669,26.951307754169L204.9394921875,26.940015421732173L205.05997395833333,26.933240022270073L205.18045572916668,26.929174782592817L205.42141927083335,26.926735638786454L205.54190104166665,28.540656767887253L205.66238281250003,45.393624829963116L205.78286458333332,54.69771335951633L205.90334635416664,62.97247416955597L206.023828125,63.36040757865665L206.14430989583332,63.59316762411708L206.26479166666667,68.84820826677793L206.3852734375,75.23200188314368L206.74671874999999,72.3315088221939L206.98768229166666,54.168136062547106L207.59009114583333,54.84703548368211L207.71057291666668,51.75437513636312L207.8310546875,41.821855851048625L208.07201822916667,35.862344279859954L208.91539062500001,32.28663733714675L209.1563541666667,30.141213171518817L209.75876302083336,28.85395867214207L209.87924479166668,28.08160597251602L210.361171875,27.618194352740378L210.60213541666667,27.340147380875017L210.7226171875,27.17331919775579L210.96358072916667,27.073222287884253L211.0840625,27.013164141961322L211.32502604166666,43.66943694671527L211.44550781249998,88.39396986033682L212.1683984375,114.42099730081749L212.28888020833332,130.30644453433663L212.40936197916668,139.83771287444816L213.01177083333334,94.67185849389966L213.13225260416667,67.57234586557055L214.21658854166668,51.31263828857312L214.3370703125,41.55681374237466L214.69851562500003,35.70331901465555L214.81899739583332,32.19122217802411L214.93947916666664,30.08396407604525L215.18044270833332,28.819609214857902L215.42140625,28.060996298145508L215.66236979166666,27.605828548118087L216.02381510416666,74.44811251348624L216.144296875,103.89963673886098L216.38526041666665,119.68593588947041L216.5057421875,129.69617691829765L216.74670572916668,88.58693692020935L216.98766927083332,63.921392921356386L217.10815104166667,49.122066522044605L217.34911458333335,45.08862452861139L217.46959635416667,37.82240548639761L217.95152343750001,80.57805867645394L218.07200520833334,107.03914289818007L218.31296875,122.91579343121575L218.43345052083333,132.98024528949867L218.55393229166668,108.86507025062227L218.6744140625,76.08827291960412L218.91537760416668,76.61450221330095L219.03585937499997,77.73793209721133L219.15634114583335,102.91199002755756L219.27682291666665,118.55488632422686L219.75875,103.70985487145919L219.99971354166667,93.72591292287552L220.1201953125,88.27400929218685L220.24067708333334,87.1567132676198L220.48164062499998,86.48633565287957L220.72260416666666,108.16103216095851L220.96356770833333,121.16585006580588L221.20453125,128.69951003948353L221.32501302083332,134.29662910061322L221.44549479166668,137.11643899882944L221.68645833333335,138.26986339929766L221.80694010416667,139.23114880880937L221.927421875,139.26945851605487L222.04790364583334,140.63859818655598L222.16838541666667,140.92162045039512L222.28886718750002,142.1683568856217L222.52983072916666,142.3779372082961L222.6503125,141.96522386343918L223.0117578125,142.52528816421736L223.13223958333333,141.24594212929964L223.373203125,142.09371912373365L223.49368489583335,118.64084685885555L223.85513020833332,129.0691234999287L223.97561197916664,135.86455102303415L224.09609375,139.94180753689741L224.21657552083332,141.58046913752307L224.33705729166667,143.64058917482154L224.5780208333333,144.87666119720063L225.05994791666666,143.73368902601268L225.30091145833333,143.3171364925307L225.42139322916665,118.29797420321071L225.541875,81.74801529115722L225.9033203125,82.70265532854049L226.02380208333332,84.62159319712428L226.264765625,85.77295591827459L226.74669270833334,62.233004320195526L226.86717447916666,48.109033361348075L226.98765625000001,39.63465078603962L227.10813802083334,82.74232893316223L227.3491015625,108.06847428297426L227.83102864583336,123.80262303132302L227.95151041666668,133.51234304956304L228.19247395833335,139.60740582973781L228.31295572916665,142.9952127286119L228.4334375,145.8355891756287L228.55391927083332,147.27058427460798L228.7948828125,124.97773518014942L229.156328125,107.83279495424348L229.27680989583334,96.1996769725461L229.39729166666666,89.21980618352767L229.51777343749998,86.10880678703967L229.63825520833333,86.93451484145457L229.99970052083333,85.54532428948811L230.12018229166665,86.8656561121544L230.602109375,83.8886244365234L230.72259114583335,61.10240543114481L230.9635546875,47.43067402791767L231.08403645833334,39.22763518598139L231.20451822916667,34.3058118808196L231.6864453125,31.352717897722513L232.047890625,29.580861507864267L232.28885416666668,66.74851690471857L232.65029947916665,93.895263988985L232.77078125000003,107.22177377800637L232.89126302083332,116.83306426680383L233.01174479166664,80.86906932931306L233.1322265625,59.29067236681861L233.37319010416667,46.34363418932193L233.493671875,38.57541128282393L233.6141536458333,33.91447753892515L233.97559895833334,31.117917292585865L234.09608072916666,29.439981144782283L234.33704427083333,41.08706560994631L234.45752604166665,35.421470135198554L234.5780078125,32.0221128503499L234.939453125,29.982498479440718L235.18041666666667,28.758729856895197L235.3008984375,28.024468683367896L235.42138020833335,42.66083505617458L235.54186197916667,36.365731802935514L236.385234375,32.58866985099208L236.50571614583333,30.322432679826026L236.86716145833336,28.962690377126385L237.4695703125,28.1468449955066L237.95149739583331,28.195799304996275L238.1924609375,27.686710352228538L238.43342447916666,27.38125698056789L238.67438802083333,27.19798495757151L238.79486979166666,27.088021743773687L238.9153515625,27.022043815494985L239.03583333333333,26.98245705852776L239.51776041666668,26.95870500434742L239.6382421875,26.944453771839214L239.75872395833335,26.93590303233428L239.9996875,26.930772588631335L240.12016927083334,26.92769432240958L240.24065104166667,41.73353967036882L240.722578125,35.80935457145208L240.96354166666669,32.25484351210203L241.20450520833333,30.122136876491993L241.44546875,36.11174366435672L241.56595052083335,35.66704619861403L241.80691406250003,32.169458488399194L242.28884114583332,44.8785981699626L242.5298046875,57.88869736351602L242.6502864583333,45.502449187340396L243.01173177083334,38.070700281635006L243.37317708333333,76.68857401513485L243.85510416666668,68.8977597936963L244.09606770833332,104.33865587621777L244.21654947916667,125.06473198726913L244.57799479166667,137.7696084231307L245.05992187500001,145.66176505387844L245.18040364583334,150.1278282630963L245.3008854166667,152.80746618862702L245.4213671875,154.68447971317622L245.7828125,155.81068782790572L245.90329427083336,156.21718192751266L246.02377604166668,156.4610783872768L246.26473958333335,156.8766470323661L246.38522135416665,156.58752668095812L246.505703125,156.6832852393441L246.74666666666667,156.47150960514492L246.8671484375,156.88290576308694L247.22859375,157.12974345785216L247.34907552083334,155.6624614593267L247.59003906249998,156.39747687559603L247.83100260416666,156.56925535612683L247.951484375,156.94155321367612L248.07196614583333,157.16493192820568L248.91533854166667,157.2989591569234L249.0358203125,157.1101447249233L249.15630208333334,156.9968560657232L249.27678385416667,157.1981136394339L249.99967447916669,157.31886818366036L250.12015625,157.12209014096544L250.24063802083333,157.27325408457926L250.36111979166668,157.36395245074755L250.4816015625,157.41837147044853L250.72256510416665,157.18179211303834L251.08401041666664,157.309075267823L251.44545572916667,157.38544516069382L251.92738281249999,157.16203632718552L252.04786458333334,157.2972217963113L252.16834635416666,157.37833307778678L252.288828125,157.42699984667206L252.40930989583333,157.45619990800324L252.6502734375,157.47371994480196L252.77075520833333,157.2150011976504L253.25268229166667,157.32900071859024L253.61412760416667,157.12816966192338L253.734609375,157.276901797154L254.09605468750001,157.3661410782924L254.21653645833334,157.41968464697547L254.3370182291667,157.45181078818527L254.4575,157.7403172421419L254.57798177083333,157.64419034528515L254.8189453125,157.5865142071711L254.93942708333336,157.55190852430266L255.05990885416668,157.5311451145816L255.18039062499997,157.51868706874896L255.30087239583335,157.51121224124938L255.78279947916667,157.5067273447496L255.90328125,157.50403640684976L256.0237630208333,157.77165261334065L256.38520833333337,157.66299156800437L256.626171875,157.59779494080263L256.74665364583336,157.55867696448158L256.86713541666666,157.53520617868895L257.10809895833336,157.52112370721338L257.22858072916665,157.512674224328L257.3490625,157.50760453459682L257.5900260416667,157.23533195152731L257.7105078125,157.34119917091638L258.071953125,157.40471950254985L258.31291666666664,143.98129323999143L258.55388020833334,146.96569902091792L258.67436197916663,150.10249633562768L258.91532552083333,151.446113185992L259.27677083333333,151.71382175774906L259.517734375,151.06675459311094L259.6382161458333,150.14005275586658L259.7586979166667,150.1224931919815L259.9996614583333,149.84272668441966L260.240625,149.94409754911334L260.3611067708333,149.466458529468L260.48158854166667,131.14141357921926L260.963515625,89.45407891676233L261.08399739583336,75.74937042698049L261.3249609375,69.41116071772674L261.56592447916665,52.41592719986679L262.1683333333333,42.21878708915087L262.65026041666664,36.10050302272129L262.7707421875,41.58337873670968L262.89122395833334,35.7192580112566L263.01170572916664,32.20078557598471L264.4574869791667,30.0897021148216L264.6984505208333,28.823052038123738L264.9394140625,28.063061992105006" style="fill: none;" fill="none"></path></g></g></g></g><g opacity="0.2"><g><g><g><path stroke="rgb(255, 112, 67)" stroke-width="2px" d="M24.698763020833333,153.46153846153845L24.819244791666666,154.1346153846154L25.301171874999998,156.15384615384613L25.421653645833334,156.15384615384613L25.6626171875,156.8269230769231L25.783098958333333,156.8269230769231L25.903580729166666,156.8269230769231L26.144544270833336,157.5L26.26502604166667,156.8269230769231L26.3855078125,156.8269230769231L26.50598958333333,156.8269230769231L26.987916666666667,157.5L28.072252604166664,158.17307692307693L28.192734375,158.17307692307693L28.433697916666667,157.5L28.795143229166666,157.5L28.915625000000002,158.17307692307693L29.156588541666665,158.17307692307693L29.397552083333334,157.5L29.518033854166667,157.5L29.758997395833333,157.5L29.9999609375,157.5L30.120442708333336,157.5L30.481888020833335,158.17307692307693L30.602369791666668,158.17307692307693L30.7228515625,157.5L30.843333333333334,157.5L30.963815104166667,157.5L31.32526041666667,157.5L31.4457421875,157.5L31.68670572916667,157.5L31.92766927083333,157.5L32.04815104166667,157.5L32.1686328125,157.5L32.28911458333333,158.17307692307693L32.65055989583333,158.17307692307693L32.77104166666666,157.5L32.8915234375,157.5L33.012005208333335,157.5L33.25296875,158.17307692307693L33.6144140625,157.5L34.216822916666665,158.17307692307693L34.3373046875,157.5L34.45778645833334,157.5L34.57826822916667,157.5L34.69875,158.17307692307693L34.81923177083333,157.5L35.421640625,157.5L36.385494791666666,157.5L36.74694010416666,157.5L36.867421875,157.5L37.71079427083333,158.17307692307693L38.07223958333333,158.17307692307693L38.313203125,157.5L38.43368489583333,158.17307692307693L38.55416666666667,158.17307692307693L39.03609375,158.17307692307693L39.15657552083333,157.5L39.277057291666665,157.5L39.63850260416667,157.5L39.758984375000004,157.5L40.12042968750001,157.5L40.60235677083333,157.5L40.8433203125,157.5L41.08428385416667,158.17307692307693L41.20476562499999,157.5L41.32524739583333,157.5L41.445729166666666,157.5L41.92765625,157.5L42.16861979166667,157.5L42.53006510416667,157.5L42.650546874999996,157.5L42.77102864583333,158.17307692307693L43.0119921875,157.5L43.132473958333335,157.5L43.25295572916667,157.5L43.61440104166667,157.5L43.85536458333333,157.5L43.97584635416666,157.5L44.216809895833336,157.5L44.337291666666665,158.17307692307693L44.69873697916666,158.17307692307693L45.30114583333334,157.5L45.421627604166666,157.5L45.542109375,157.5L45.78307291666666,157.5L45.9035546875,158.17307692307693L46.144518229166664,157.5L46.38548177083334,157.5L46.50596354166667,157.5L46.6264453125,157.5L46.74692708333333,157.5L46.987890625,157.5L47.10837239583333,157.5L47.95174479166667,157.5L48.433671875,157.5L48.915598958333334,158.17307692307693L49.03608072916667,157.5L49.15656250000001,157.5L49.63848958333333,156.8269230769231L49.999934895833334,157.5L50.36138020833333,157.5L50.481861979166666,157.5L50.84330729166667,157.5L50.9637890625,158.17307692307693L51.20475260416667,158.17307692307693L51.325234375,157.5L51.44571614583333,157.5L51.686679687499996,157.5L51.80716145833333,158.17307692307693L52.048125,157.5L52.168606770833335,157.5L52.28908854166667,157.5L52.65053385416667,158.17307692307693L53.01197916666666,157.5L53.61438802083334,157.5L53.8553515625,158.17307692307693L54.09631510416666,157.5L54.216796875,158.17307692307693L54.81920572916666,158.17307692307693L55.180651041666664,157.5L55.3011328125,157.5L55.42161458333334,157.5L55.54209635416667,156.8269230769231L55.78305989583333,157.5L56.264986979166665,157.5L56.50595052083333,157.5L56.746914062500004,156.8269230769231L56.98787760416667,157.5L57.59028645833333,157.5L57.831250000000004,157.5L58.31317708333333,156.15384615384613L58.9155859375,142.01923076923077L59.15654947916667,150.76923076923077L59.27703124999999,152.78846153846155L59.638476562499996,154.8076923076923L59.87944010416667,155.48076923076923L59.999921875,154.8076923076923L60.120403645833335,156.15384615384613L60.3613671875,156.15384615384613L60.48184895833333,156.15384615384613L60.60233072916667,156.15384615384613L61.0842578125,156.8269230769231L61.204739583333335,156.8269230769231L61.445703125,157.5L61.8071484375,157.5L62.289075520833336,157.5L62.409557291666665,157.5L62.5300390625,156.15384615384613L62.65052083333334,157.5L62.891484375,156.8269230769231L63.2529296875,156.15384615384613L63.37341145833334,156.15384615384613L63.493893229166666,156.15384615384613L63.85533854166666,154.8076923076923L63.9758203125,154.8076923076923L64.21678385416666,154.1346153846154L64.93967447916667,150.76923076923077L65.18063802083333,147.40384615384616L65.54208333333332,134.6153846153846L65.66256510416666,141.34615384615384L65.90352864583333,137.98076923076923L66.02401041666667,121.15384615384615L66.62641927083332,107.01923076923077L66.74690104166666,127.8846153846154L66.98786458333333,108.36538461538461L67.228828125,90.19230769230768L67.34930989583333,135.28846153846155L67.46979166666667,134.6153846153846L67.83123697916666,134.6153846153846L67.95171875,117.11538461538463L68.3131640625,131.92307692307693L68.43364583333333,129.90384615384616L68.674609375,132.59615384615384L68.79509114583334,131.25L69.0360546875,129.23076923076923L69.51798177083333,106.34615384615385L69.63846354166667,99.61538461538461L69.7589453125,131.25L69.99990885416668,122.49999999999999L70.120390625,137.98076923076923L70.4818359375,121.82692307692307L70.60231770833333,120.48076923076923L70.72279947916667,119.8076923076923L70.84328125,127.8846153846154L71.08424479166666,117.11538461538463L71.2047265625,105L71.32520833333334,127.8846153846154L71.44569010416666,111.0576923076923L72.53002604166667,101.63461538461537L72.6505078125,127.8846153846154L72.89147135416667,123.17307692307692L73.25291666666668,132.59615384615384L74.09628906249999,117.11538461538463L74.21677083333333,105L74.69869791666667,118.46153846153847L74.8191796875,114.42307692307692L74.93966145833333,119.13461538461539L75.180625,125.1923076923077L75.42158854166667,116.44230769230771L75.903515625,118.46153846153847L76.9878515625,127.8846153846154L77.10833333333333,119.13461538461539L77.22881510416667,121.82692307692307L77.34929687500001,125.86538461538461L77.59026041666667,123.84615384615384L77.7107421875,134.6153846153846L78.0721875,135.96153846153845L78.4336328125,132.59615384615384L79.27700520833334,138.65384615384616L79.39748697916667,129.90384615384616L79.51796875000001,142.01923076923077L79.63845052083333,137.98076923076923L79.8794140625,136.6346153846154L79.99989583333334,130.57692307692307L80.12037760416668,126.53846153846153L80.36134114583332,142.01923076923077L80.48182291666666,109.03846153846153L80.6023046875,121.82692307692307L80.84326822916667,137.98076923076923L81.08423177083333,139.3269230769231L81.20471354166666,132.59615384615384L81.686640625,139.3269230769231L82.53001302083332,137.98076923076923L82.89145833333333,142.01923076923077L83.01194010416667,132.59615384615384L83.25290364583333,144.03846153846152L83.4938671875,135.96153846153845L83.8553125,137.98076923076923L85.18061197916666,129.90384615384616L85.54205729166667,140.67307692307693L85.6625390625,146.73076923076923L85.78302083333334,135.96153846153845L86.023984375,140L86.26494791666667,137.3076923076923L86.38542968750001,86.82692307692308L86.62639322916667,140.67307692307693L87.22880208333333,142.01923076923077L87.34928385416666,122.49999999999999L88.07217447916666,137.3076923076923L88.31313802083334,129.90384615384616L88.43361979166667,141.34615384615384L88.55410156250001,127.8846153846154L88.67458333333333,140.67307692307693L88.79506510416667,138.65384615384616L88.915546875,144.03846153846152L89.03602864583334,119.8076923076923L89.15651041666668,137.98076923076923L89.27699218750001,144.71153846153845L89.39747395833332,142.69230769230768L89.6384375,135.96153846153845L89.9998828125,141.34615384615384L90.12036458333333,137.98076923076923L90.24084635416666,131.25L90.48180989583334,142.69230769230768L90.96373697916667,140.67307692307693L91.20470052083334,118.46153846153847L91.44566406249999,131.92307692307693L91.92759114583333,141.34615384615384L92.04807291666667,139.3269230769231L92.16855468749999,137.98076923076923L92.40951822916666,137.3076923076923L92.65048177083334,141.34615384615384L92.8914453125,100.28846153846153L93.13240885416667,141.34615384615384L93.252890625,117.78846153846155L93.6143359375,109.03846153846153L93.85529947916666,52.50000000000001L93.97578125,26.923076923076923L94.09626302083333,26.923076923076923L94.21674479166666,51.153846153846146L94.33722656249999,26.923076923076923L94.45770833333333,26.923076923076923L94.698671875,26.923076923076923L94.81915364583334,26.923076923076923L95.42156250000001,26.923076923076923L95.54204427083334,26.923076923076923L95.7830078125,26.923076923076923L95.90348958333334,26.923076923076923L96.02397135416668,26.923076923076923L96.38541666666666,26.923076923076923L96.62638020833333,43.07692307692308L96.86734375,26.923076923076923L97.10830729166666,26.923076923076923L97.34927083333334,26.923076923076923L97.59023437500001,26.923076923076923L97.71071614583333,26.923076923076923L97.83119791666667,26.923076923076923L98.19264322916668,26.923076923076923L98.6745703125,26.923076923076923L98.79505208333333,26.923076923076923L99.036015625,26.923076923076923L99.15649739583333,26.923076923076923L99.3974609375,26.923076923076923L99.87938802083333,26.923076923076923L100.48179687499999,26.923076923076923L101.32516927083333,26.923076923076923L101.44565104166666,26.923076923076923L101.68661458333334,26.923076923076923L101.80709635416667,26.923076923076923L101.927578125,26.923076923076923L102.04805989583333,26.923076923076923L102.16854166666667,26.923076923076923L102.2890234375,26.923076923076923L102.52998697916667,31.63461538461539L102.65046875,26.923076923076923L103.13239583333333,26.923076923076923L103.25287760416666,26.923076923076923L103.49384114583333,26.923076923076923L103.7348046875,26.923076923076923L104.09625,26.923076923076923L104.33721354166667,26.923076923076923L104.45769531250001,26.923076923076923L104.57817708333334,26.923076923076923L104.93962239583334,26.923076923076923L105.06010416666668,26.923076923076923L105.1805859375,26.923076923076923L105.30106770833333,26.923076923076923L105.42154947916666,26.923076923076923L105.66251302083333,26.923076923076923L105.78299479166667,26.923076923076923L105.9034765625,26.923076923076923L106.14444010416666,26.923076923076923L106.264921875,26.923076923076923L106.38540364583334,26.923076923076923L106.50588541666667,26.923076923076923L106.62636718750001,26.923076923076923L106.74684895833333,26.923076923076923L106.9878125,26.923076923076923L107.10829427083334,26.923076923076923L107.46973958333332,26.923076923076923L107.95166666666667,26.923076923076923L108.31311197916666,26.923076923076923L108.43359375,26.923076923076923L108.55407552083334,26.923076923076923L108.7950390625,26.923076923076923L108.91552083333333,26.923076923076923L109.03600260416667,26.923076923076923L109.156484375,26.923076923076923L109.39744791666668,26.923076923076923L109.51792968749999,26.923076923076923L109.63841145833332,26.923076923076923L110.12033854166667,26.923076923076923L110.602265625,26.923076923076923L110.72274739583334,26.923076923076923L110.9637109375,26.923076923076923L111.08419270833333,26.923076923076923L111.20467447916667,26.923076923076923L111.32515625,26.923076923076923L111.44563802083334,26.923076923076923L111.56611979166667,26.923076923076923L111.92756510416666,26.923076923076923L112.048046875,26.923076923076923L112.7709375,26.923076923076923L113.01190104166666,26.923076923076923L113.1323828125,26.923076923076923L113.25286458333333,26.923076923076923L113.37334635416667,26.923076923076923L113.61430989583334,26.923076923076923L113.97575520833334,26.923076923076923L114.09623697916668,26.923076923076923L114.45768229166666,26.923076923076923L114.5781640625,26.923076923076923L114.69864583333333,26.923076923076923L114.939609375,26.923076923076923L115.18057291666666,26.923076923076923L115.54201822916667,26.923076923076923L115.66250000000001,26.923076923076923L115.90346354166667,26.923076923076923L116.26490885416668,26.923076923076923L116.38539062500001,26.923076923076923L116.50587239583332,26.923076923076923L116.7468359375,26.923076923076923L116.86731770833333,26.923076923076923L116.98779947916667,26.923076923076923L117.22876302083333,53.84615384615385L117.34924479166666,26.923076923076923L117.4697265625,26.923076923076923L118.07213541666667,65.96153846153847L118.55406249999999,76.73076923076923L118.67454427083332,26.923076923076923L118.9155078125,26.923076923076923L119.15647135416667,58.557692307692314L119.39743489583333,66.63461538461539L119.51791666666666,90.19230769230768L119.6383984375,131.25L119.75888020833334,126.53846153846153L119.87936197916667,107.6923076923077L119.99984375,26.923076923076923L120.24080729166667,113.75L120.48177083333334,115.09615384615384L120.722734375,119.13461538461539L121.0841796875,26.923076923076923L121.32514322916666,26.923076923076923L121.44562499999999,26.923076923076923L121.56610677083333,26.923076923076923L122.04803385416666,26.923076923076923L122.28899739583333,26.923076923076923L122.40947916666667,26.923076923076923L122.65044270833334,26.923076923076923L123.01188802083334,26.923076923076923L123.2528515625,26.923076923076923L123.37333333333333,26.923076923076923L123.49381510416666,26.923076923076923L123.85526041666667,26.923076923076923L124.21670572916666,142.01923076923077L124.3371875,26.923076923076923L124.57815104166667,41.05769230769232L124.81911458333333,51.826923076923066L125.060078125,55.19230769230769L125.66248697916666,26.923076923076923L125.90345052083333,26.923076923076923L126.02393229166667,26.923076923076923L126.1444140625,26.923076923076923L126.26489583333333,26.923076923076923L126.62634114583334,26.923076923076923L127.34923177083334,26.923076923076923L127.59019531249999,29.615384615384606L127.71067708333332,58.557692307692314L127.83115885416666,26.923076923076923L127.951640625,59.23076923076923L128.07212239583333,59.90384615384615L128.55404947916668,26.923076923076923L128.79501302083335,26.923076923076923L128.91549479166667,40.38461538461538L129.27694010416667,26.923076923076923L129.397421875,26.923076923076923L129.51790364583334,37.019230769230774L129.63838541666667,48.46153846153847L129.7588671875,26.923076923076923L129.99983072916666,26.923076923076923L130.1203125,26.923076923076923L130.24079427083333,26.923076923076923L130.36127604166666,41.73076923076924L130.60223958333333,54.51923076923077L130.96368489583335,26.923076923076923L131.2046484375,26.923076923076923L131.32513020833332,30.961538461538467L131.56609375,41.05769230769232L131.68657552083334,57.21153846153845L132.04802083333334,46.44230769230768L132.16850260416666,26.923076923076923L132.40946614583333,26.923076923076923L132.52994791666666,26.923076923076923L133.3733203125,97.59615384615385L133.49380208333332,37.69230769230769L133.61428385416667,98.26923076923077L133.734765625,102.98076923076924L133.85524739583332,84.80769230769232L133.97572916666667,104.32692307692308L134.0962109375,98.9423076923077L134.33717447916666,26.923076923076923L134.45765625,40.38461538461538L134.57813802083334,26.923076923076923L134.93958333333333,26.923076923076923L135.06006510416668,34.99999999999999L135.180546875,26.923076923076923L135.30102864583333,30.961538461538467L135.5419921875,26.923076923076923L136.2648828125,26.923076923076923L136.38536458333334,26.923076923076923L136.50584635416666,26.923076923076923L136.74680989583334,26.923076923076923L137.22873697916668,49.13461538461539L137.59018229166668,34.99999999999999L137.95162760416667,26.923076923076923L138.4335546875,53.84615384615385L138.795,44.42307692307692L138.91548177083334,26.923076923076923L139.03596354166666,41.05769230769232L139.27692708333333,26.923076923076923L139.39740885416666,28.269230769230766L139.517890625,47.78846153846154L139.8793359375,26.923076923076923L139.99981770833335,26.923076923076923L140.24078125,26.923076923076923L140.48174479166667,26.923076923076923L140.6022265625,26.923076923076923L140.84319010416667,26.923076923076923L141.08415364583334,47.11538461538462L141.20463541666666,26.923076923076923L141.44559895833333,45.76923076923076L141.6865625,43.07692307692308L141.80704427083333,56.53846153846153L141.92752604166668,39.71153846153846L142.0480078125,62.59615384615384L142.409453125,57.884615384615394L142.52993489583332,64.61538461538461L142.65041666666667,65.96153846153847L143.01186197916667,26.923076923076923L143.13234375,29.615384615384606L144.09619791666668,26.923076923076923L144.45764322916668,26.923076923076923L144.578125,26.923076923076923L144.81908854166667,26.923076923076923L145.06005208333335,59.23076923076923L145.18053385416667,26.923076923076923L145.54197916666666,26.923076923076923L145.66246093750001,26.923076923076923L145.9034244791667,26.923076923076923L146.02390625,41.05769230769232L146.14438802083333,37.019230769230774L146.26486979166668,26.923076923076923L146.62631510416668,43.75L147.59016927083331,38.36538461538461L147.71065104166667,48.46153846153847L147.8311328125,49.13461538461539L148.07209635416666,28.942307692307686L148.31305989583333,26.923076923076923L148.43354166666666,26.923076923076923L148.5540234375,26.923076923076923L148.79498697916665,26.923076923076923L149.03595052083332,26.923076923076923L149.15643229166668,26.923076923076923L149.2769140625,26.923076923076923L149.638359375,26.923076923076923L149.75884114583334,26.923076923076923L149.87932291666667,61.92307692307692L150.48173177083333,26.923076923076923L150.7226953125,26.923076923076923L150.84317708333333,26.923076923076923L151.084140625,26.923076923076923L151.20462239583335,31.63461538461539L151.44558593750003,26.923076923076923L152.1684765625,26.923076923076923L152.2889583333333,26.923076923076923L152.52992187499999,51.153846153846146L152.77088541666666,26.923076923076923L153.2528125,26.923076923076923L153.49377604166668,26.923076923076923L153.73473958333332,26.923076923076923L153.975703125,26.923076923076923L154.21666666666667,26.923076923076923L154.45763020833334,26.923076923076923L154.57811197916666,26.923076923076923L154.69859375000001,26.923076923076923L154.81907552083334,65.28846153846153L154.9395572916667,84.13461538461537L155.421484375,83.46153846153845L155.66244791666668,74.71153846153847L155.78292968749997,72.01923076923076L156.5058203125,80.09615384615385L156.74678385416667,56.53846153846153L156.98774739583334,62.59615384615384L157.10822916666666,67.3076923076923L157.22871093749998,57.884615384615394L157.9516015625,26.923076923076923L158.313046875,26.923076923076923L158.55401041666667,26.923076923076923L158.91545572916667,39.03846153846153L159.27690104166666,95.57692307692308L159.3973828125,72.6923076923077L159.63834635416669,26.923076923076923L159.758828125,26.923076923076923L159.87930989583333,32.30769230769231L159.99979166666668,26.923076923076923L160.24075520833335,26.923076923076923L160.36123697916665,26.923076923076923L160.60220052083332,28.269230769230766L160.72268229166664,26.923076923076923L160.8431640625,26.923076923076923L161.204609375,63.9423076923077L161.3250911458333,27.596153846153847L161.56605468749999,26.923076923076923L162.52990885416668,26.923076923076923L162.650390625,26.923076923076923L162.77087239583332,26.923076923076923L162.89135416666667,45.76923076923076L163.25279947916667,26.923076923076923L163.37328125,26.923076923076923L163.49376302083334,26.923076923076923L163.85520833333334,26.923076923076923L163.9756901041667,26.923076923076923L164.096171875,26.923076923076923L164.4576171875,47.11538461538462L165.9033984375,65.28846153846153L166.26484374999998,26.923076923076923L166.50580729166666,26.923076923076923L166.6262890625,26.923076923076923L166.86725260416665,34.32692307692307L166.987734375,45.76923076923076L167.3491796875,26.923076923076923L167.710625,26.923076923076923L167.83110677083334,26.923076923076923L167.95158854166667,26.923076923076923L168.07207031250002,26.923076923076923L168.19255208333334,102.30769230769229L168.31303385416666,34.32692307692307L168.433515625,74.71153846153847L168.55399739583333,84.80769230769232L168.7949609375,26.923076923076923L169.03592447916668,26.923076923076923L169.15640625,30.961538461538467L169.39736979166665,26.923076923076923L169.63833333333332,26.923076923076923L169.879296875,26.923076923076923L169.99977864583332,57.21153846153845L170.12026041666667,49.13461538461539L170.2407421875,65.28846153846153L170.3612239583333,33.65384615384615L170.48170572916666,26.923076923076923L170.9636328125,61.24999999999999L171.56604166666668,26.923076923076923L171.6865234375,26.923076923076923L171.92748697916667,26.923076923076923L172.04796875,26.923076923076923L172.52989583333334,26.923076923076923L172.65037760416666,26.923076923076923L172.77085937500001,26.923076923076923L173.0118229166667,26.923076923076923L173.37326822916668,26.923076923076923L173.73471354166668,26.923076923076923L173.97567708333335,26.923076923076923L174.216640625,26.923076923076923L174.33712239583332,26.923076923076923L174.5780859375,26.923076923076923L174.69856770833331,26.923076923076923L175.06001302083334,76.73076923076923L175.18049479166666,80.09615384615385L175.30097656249998,26.923076923076923L175.54194010416666,26.923076923076923L175.662421875,26.923076923076923L175.78290364583333,26.923076923076923L176.0238671875,26.923076923076923L176.14434895833332,26.923076923076923L176.26483072916668,26.923076923076923L176.3853125,26.923076923076923L176.50579427083335,26.923076923076923L176.62627604166667,26.923076923076923L177.22868489583334,26.923076923076923L177.34916666666666,26.923076923076923L177.59013020833333,26.923076923076923L178.07205729166668,52.50000000000001L178.1925390625,29.615384615384606L178.43350260416665,26.923076923076923L178.9154296875,26.923076923076923L179.15639322916667,26.923076923076923L179.3973567708333,26.923076923076923L179.63832031249999,26.923076923076923L179.75880208333334,26.923076923076923L179.87928385416666,26.923076923076923L179.999765625,26.923076923076923L180.24072916666665,26.923076923076923L180.60217447916668,26.923076923076923L180.72265625,26.923076923076923L180.96361979166667,26.923076923076923L181.0841015625,26.923076923076923L181.20458333333335,26.923076923076923L181.445546875,34.32692307692307L181.92747395833334,26.923076923076923L182.1684375,80.09615384615385L182.28891927083333,80.76923076923077L182.5298828125,52.50000000000001L182.65036458333336,26.923076923076923L183.01180989583335,26.923076923076923L183.13229166666665,26.923076923076923L183.73470052083331,26.923076923076923L183.85518229166667,26.923076923076923L183.9756640625,26.923076923076923L184.09614583333334,29.615384615384606L184.33710937499998,26.923076923076923L184.57807291666666,52.50000000000001L184.6985546875,26.923076923076923L184.81903645833333,26.923076923076923L184.93951822916665,26.923076923076923L185.06,26.923076923076923L185.18048177083332,26.923076923076923L185.54192708333335,26.923076923076923L185.90337239583334,26.923076923076923L186.14433593750002,26.923076923076923L186.38529947916666,26.923076923076923L186.50578125,26.923076923076923L186.62626302083333,26.923076923076923L186.74674479166669,55.19230769230769L186.8672265625,26.923076923076923L187.34915364583335,32.30769230769231L187.83108072916664,26.923076923076923L188.07204427083332,26.923076923076923L188.19252604166667,26.923076923076923L188.55397135416666,26.923076923076923L188.67445312499999,26.923076923076923L188.79493489583334,26.923076923076923L189.15638020833333,26.923076923076923L189.51782552083333,26.923076923076923L189.63830729166668,26.923076923076923L189.7587890625,26.923076923076923L189.99975260416667,26.923076923076923L190.120234375,26.923076923076923L190.24071614583335,26.923076923076923L190.60216145833334,44.42307692307692L190.84312500000001,26.923076923076923L190.96360677083334,26.923076923076923L191.0840885416667,26.923076923076923L191.2045703125,26.923076923076923L191.32505208333333,26.923076923076923L191.44553385416668,26.923076923076923L191.68649739583336,26.923076923076923L191.80697916666668,61.24999999999999L192.16842447916665,28.269230769230766L192.77083333333331,37.019230769230774L194.21661458333332,26.923076923076923L194.33709635416668,26.923076923076923L194.457578125,26.923076923076923L194.57805989583335,26.923076923076923L195.05998697916667,45.09615384615384L195.42143229166666,26.923076923076923L195.5419140625,28.942307692307686L195.78287760416669,56.53846153846153L195.903359375,26.923076923076923L196.02384114583333,59.90384615384615L196.14432291666668,26.923076923076923L196.38528645833335,72.01923076923076L196.62625000000003,26.923076923076923L196.74673177083332,67.98076923076923L196.86721354166664,40.38461538461538L197.10817708333332,78.74999999999999L197.22865885416667,78.07692307692307L197.349140625,58.557692307692314L197.59010416666666,26.923076923076923L197.83106770833334,45.76923076923076L198.55395833333333,80.76923076923077L198.794921875,82.11538461538461L199.39733072916667,26.923076923076923L199.5178125,26.923076923076923L199.99973958333334,35.673076923076934L200.6021484375,26.923076923076923L200.72263020833336,26.923076923076923L201.20455729166665,35.673076923076934L201.686484375,37.019230769230774L202.0479296875,26.923076923076923L202.40937499999998,26.923076923076923L202.52985677083333,26.923076923076923L202.65033854166666,26.923076923076923L203.01178385416665,26.923076923076923L203.132265625,26.923076923076923L203.4937109375,26.923076923076923L203.73467447916667,26.923076923076923L203.85515625,26.923076923076923L203.97563802083334,26.923076923076923L204.81901041666669,26.923076923076923L204.9394921875,26.923076923076923L205.05997395833333,26.923076923076923L205.18045572916668,26.923076923076923L205.42141927083335,26.923076923076923L205.54190104166665,30.961538461538467L205.66238281250003,70.67307692307692L205.78286458333332,68.65384615384616L205.90334635416664,75.38461538461539L206.023828125,63.9423076923077L206.14430989583332,63.9423076923077L206.26479166666667,76.73076923076923L206.3852734375,84.80769230769232L206.74671874999999,67.98076923076923L206.98768229166666,26.923076923076923L207.59009114583333,55.86538461538461L207.71057291666668,47.11538461538462L207.8310546875,26.923076923076923L208.07201822916667,26.923076923076923L208.91539062500001,26.923076923076923L209.1563541666667,26.923076923076923L209.75876302083336,26.923076923076923L209.87924479166668,26.923076923076923L210.361171875,26.923076923076923L210.60213541666667,26.923076923076923L210.7226171875,26.923076923076923L210.96358072916667,26.923076923076923L211.0840625,26.923076923076923L211.32502604166666,68.65384615384616L211.44550781249998,155.48076923076923L212.1683984375,153.46153846153845L212.28888020833332,154.1346153846154L212.40936197916668,154.1346153846154L213.01177083333334,26.923076923076923L213.13225260416667,26.923076923076923L214.21658854166668,26.923076923076923L214.3370703125,26.923076923076923L214.69851562500003,26.923076923076923L214.81899739583332,26.923076923076923L214.93947916666664,26.923076923076923L215.18044270833332,26.923076923076923L215.42140625,26.923076923076923L215.66236979166666,26.923076923076923L216.02381510416666,144.71153846153845L216.144296875,148.07692307692307L216.38526041666665,143.3653846153846L216.5057421875,144.71153846153845L216.74670572916668,26.923076923076923L216.98766927083332,26.923076923076923L217.10815104166667,26.923076923076923L217.34911458333335,39.03846153846153L217.46959635416667,26.923076923076923L217.95152343750001,144.71153846153845L218.07200520833334,146.73076923076923L218.31296875,146.73076923076923L218.43345052083333,148.07692307692307L218.55393229166668,72.6923076923077L218.6744140625,26.923076923076923L218.91537760416668,77.40384615384615L219.03585937499997,79.42307692307693L219.15634114583335,140.67307692307693L219.27682291666665,142.01923076923077L219.75875,81.4423076923077L219.99971354166667,78.74999999999999L220.1201953125,80.09615384615385L220.24067708333334,85.48076923076924L220.48164062499998,85.48076923076924L220.72260416666666,140.67307692307693L220.96356770833333,140.67307692307693L221.20453125,140L221.32501302083332,142.69230769230768L221.44549479166668,141.34615384615384L221.68645833333335,140L221.80694010416667,140.67307692307693L221.927421875,139.3269230769231L222.04790364583334,142.69230769230768L222.16838541666667,141.34615384615384L222.28886718750002,144.03846153846152L222.52983072916666,142.69230769230768L222.6503125,141.34615384615384L223.0117578125,143.3653846153846L223.13223958333333,139.3269230769231L223.373203125,143.3653846153846L223.49368489583335,83.46153846153845L223.85513020833332,144.71153846153845L223.97561197916664,146.05769230769232L224.09609375,146.05769230769232L224.21657552083332,144.03846153846152L224.33705729166667,146.73076923076923L224.5780208333333,146.73076923076923L225.05994791666666,142.01923076923077L225.30091145833333,142.69230769230768L225.42139322916665,80.76923076923077L225.541875,26.923076923076923L225.9033203125,84.13461538461537L226.02380208333332,87.5L226.264765625,87.5L226.74669270833334,26.923076923076923L226.86717447916666,26.923076923076923L226.98765625000001,26.923076923076923L227.10813802083334,147.40384615384616L227.3491015625,146.05769230769232L227.83102864583336,147.40384615384616L227.95151041666668,148.07692307692307L228.19247395833335,148.75L228.31295572916665,148.07692307692307L228.4334375,150.09615384615387L228.55391927083332,149.4230769230769L228.7948828125,91.53846153846152L229.156328125,82.11538461538461L229.27680989583334,78.74999999999999L229.39729166666666,78.74999999999999L229.51777343749998,81.4423076923077L229.63825520833333,88.17307692307692L229.99970052083333,83.46153846153845L230.12018229166665,88.84615384615384L230.602109375,79.42307692307693L230.72259114583335,26.923076923076923L230.9635546875,26.923076923076923L231.08403645833334,26.923076923076923L231.20451822916667,26.923076923076923L231.6864453125,26.923076923076923L232.047890625,26.923076923076923L232.28885416666668,122.49999999999999L232.65029947916665,134.6153846153846L232.77078125000003,127.21153846153848L232.89126302083332,131.25L233.01174479166664,26.923076923076923L233.1322265625,26.923076923076923L233.37319010416667,26.923076923076923L233.493671875,26.923076923076923L233.6141536458333,26.923076923076923L233.97559895833334,26.923076923076923L234.09608072916666,26.923076923076923L234.33704427083333,58.557692307692314L234.45752604166665,26.923076923076923L234.5780078125,26.923076923076923L234.939453125,26.923076923076923L235.18041666666667,26.923076923076923L235.3008984375,26.923076923076923L235.42138020833335,64.61538461538461L235.54186197916667,26.923076923076923L236.385234375,26.923076923076923L236.50571614583333,26.923076923076923L236.86716145833336,26.923076923076923L237.4695703125,26.923076923076923L237.95149739583331,28.269230769230766L238.1924609375,26.923076923076923L238.43342447916666,26.923076923076923L238.67438802083333,26.923076923076923L238.79486979166666,26.923076923076923L238.9153515625,26.923076923076923L239.03583333333333,26.923076923076923L239.51776041666668,26.923076923076923L239.6382421875,26.923076923076923L239.75872395833335,26.923076923076923L239.9996875,26.923076923076923L240.12016927083334,26.923076923076923L240.24065104166667,63.9423076923077L240.722578125,26.923076923076923L240.96354166666669,26.923076923076923L241.20450520833333,26.923076923076923L241.44546875,45.09615384615384L241.56595052083335,34.99999999999999L241.80691406250003,26.923076923076923L242.28884114583332,63.9423076923077L242.5298046875,77.40384615384615L242.6502864583333,26.923076923076923L243.01173177083334,26.923076923076923L243.37317708333333,134.6153846153846L243.85510416666668,57.21153846153845L244.09606770833332,157.5L244.21654947916667,156.15384615384613L244.57799479166667,156.8269230769231L245.05992187500001,157.5L245.18040364583334,156.8269230769231L245.3008854166667,156.8269230769231L245.4213671875,157.5L245.7828125,157.5L245.90329427083336,156.8269230769231L246.02377604166668,156.8269230769231L246.26473958333335,157.5L246.38522135416665,156.15384615384613L246.505703125,156.8269230769231L246.74666666666667,156.15384615384613L246.8671484375,157.5L247.22859375,157.5L247.34907552083334,153.46153846153845L247.59003906249998,157.5L247.83100260416666,156.8269230769231L247.951484375,157.5L248.07196614583333,157.5L248.91533854166667,157.5L249.0358203125,156.8269230769231L249.15630208333334,156.8269230769231L249.27678385416667,157.5L249.99967447916669,157.5L250.12015625,156.8269230769231L250.24063802083333,157.5L250.36111979166668,157.5L250.4816015625,157.5L250.72256510416665,156.8269230769231L251.08401041666664,157.5L251.44545572916667,157.5L251.92738281249999,156.8269230769231L252.04786458333334,157.5L252.16834635416666,157.5L252.288828125,157.5L252.40930989583333,157.5L252.6502734375,157.5L252.77075520833333,156.8269230769231L253.25268229166667,157.5L253.61412760416667,156.8269230769231L253.734609375,157.5L254.09605468750001,157.5L254.21653645833334,157.5L254.3370182291667,157.5L254.4575,158.17307692307693L254.57798177083333,157.5L254.8189453125,157.5L254.93942708333336,157.5L255.05990885416668,157.5L255.18039062499997,157.5L255.30087239583335,157.5L255.78279947916667,157.5L255.90328125,157.5L256.0237630208333,158.17307692307693L256.38520833333337,157.5L256.626171875,157.5L256.74665364583336,157.5L256.86713541666666,157.5L257.10809895833336,157.5L257.22858072916665,157.5L257.3490625,157.5L257.5900260416667,156.8269230769231L257.7105078125,157.5L258.071953125,157.5L258.31291666666664,123.84615384615384L258.55388020833334,151.4423076923077L258.67436197916663,154.8076923076923L258.91532552083333,153.46153846153845L259.27677083333333,152.1153846153846L259.517734375,150.09615384615387L259.6382161458333,148.75L259.7586979166667,150.09615384615387L259.9996614583333,149.4230769230769L260.240625,150.09615384615387L260.3611067708333,148.75L260.48158854166667,103.65384615384616L260.963515625,26.923076923076923L261.08399739583336,55.19230769230769L261.3249609375,59.90384615384615L261.56592447916665,26.923076923076923L262.1683333333333,26.923076923076923L262.65026041666664,26.923076923076923L262.7707421875,49.80769230769231L262.89122395833334,26.923076923076923L263.01170572916664,26.923076923076923L264.4574869791667,26.923076923076923L264.6984505208333,26.923076923076923L264.9394140625,26.923076923076923" style="fill: none;" fill="none"></path></g></g></g></g></g></g><g transform="translate(40, 175)" clip-path="url(#clip_1)"><clipPath id="clip_1"><rect width="289" height="25"></rect></clipPath><g><g><line x1="0" y1="0" x2="0" y2="5" style="visibility: inherit;" fill="rgb(0, 0, 0)" stroke="rgb(204, 204, 204)" stroke-width="1px"></line><line x1="24.096354166666664" y1="0" x2="24.096354166666664" y2="5" style="visibility: inherit;" fill="rgb(0, 0, 0)" stroke="rgb(204, 204, 204)" stroke-width="1px"></line><line x1="48.19270833333333" y1="0" x2="48.19270833333333" y2="5" style="visibility: inherit;" fill="rgb(0, 0, 0)" stroke="rgb(204, 204, 204)" stroke-width="1px"></line><line x1="72.2890625" y1="0" x2="72.2890625" y2="5" style="visibility: inherit;" fill="rgb(0, 0, 0)" stroke="rgb(204, 204, 204)" stroke-width="1px"></line><line x1="96.38541666666666" y1="0" x2="96.38541666666666" y2="5" style="visibility: inherit;" fill="rgb(0, 0, 0)" stroke="rgb(204, 204, 204)" stroke-width="1px"></line><line x1="120.48177083333334" y1="0" x2="120.48177083333334" y2="5" style="visibility: inherit;" fill="rgb(0, 0, 0)" stroke="rgb(204, 204, 204)" stroke-width="1px"></line><line x1="144.578125" y1="0" x2="144.578125" y2="5" style="visibility: inherit;" fill="rgb(0, 0, 0)" stroke="rgb(204, 204, 204)" stroke-width="1px"></line><line x1="168.67447916666669" y1="0" x2="168.67447916666669" y2="5" style="visibility: inherit;" fill="rgb(0, 0, 0)" stroke="rgb(204, 204, 204)" stroke-width="1px"></line><line x1="192.77083333333331" y1="0" x2="192.77083333333331" y2="5" style="visibility: inherit;" fill="rgb(0, 0, 0)" stroke="rgb(204, 204, 204)" stroke-width="1px"></line><line x1="216.8671875" y1="0" x2="216.8671875" y2="5" style="visibility: inherit;" fill="rgb(0, 0, 0)" stroke="rgb(204, 204, 204)" stroke-width="1px"></line><line x1="240.96354166666669" y1="0" x2="240.96354166666669" y2="5" style="visibility: inherit;" fill="rgb(0, 0, 0)" stroke="rgb(204, 204, 204)" stroke-width="1px"></line><line x1="265.0598958333333" y1="0" x2="265.0598958333333" y2="5" style="visibility: inherit;" fill="rgb(0, 0, 0)" stroke="rgb(204, 204, 204)" stroke-width="1px"></line><line x1="289.15625" y1="0" x2="289.15625" y2="5" style="visibility: inherit;" fill="rgb(0, 0, 0)" stroke="rgb(204, 204, 204)" stroke-width="1px"></line></g><g transform="translate(0, 8)"><text x="0" y="0" dx="0em" dy="0.95em" style="text-anchor: middle; visibility: hidden; font-family: Roboto, sans-serif; font-size: 12px; font-weight: 200;" fill="rgb(50, 49, 63)" stroke="none" stroke-width="1px">-200</text><text x="24.096354166666664" y="0" dx="0em" dy="0.95em" style="text-anchor: middle; visibility: inherit; font-family: Roboto, sans-serif; font-size: 12px; font-weight: 200;" fill="rgb(50, 49, 63)" stroke="none" stroke-width="1px">0</text><text x="48.19270833333333" y="0" dx="0em" dy="0.95em" style="text-anchor: middle; visibility: hidden; font-family: Roboto, sans-serif; font-size: 12px; font-weight: 200;" fill="rgb(50, 49, 63)" stroke="none" stroke-width="1px">200</text><text x="72.2890625" y="0" dx="0em" dy="0.95em" style="text-anchor: middle; visibility: inherit; font-family: Roboto, sans-serif; font-size: 12px; font-weight: 200;" fill="rgb(50, 49, 63)" stroke="none" stroke-width="1px">400</text><text x="96.38541666666666" y="0" dx="0em" dy="0.95em" style="text-anchor: middle; visibility: hidden; font-family: Roboto, sans-serif; font-size: 12px; font-weight: 200;" fill="rgb(50, 49, 63)" stroke="none" stroke-width="1px">600</text><text x="120.48177083333334" y="0" dx="0em" dy="0.95em" style="text-anchor: middle; visibility: inherit; font-family: Roboto, sans-serif; font-size: 12px; font-weight: 200;" fill="rgb(50, 49, 63)" stroke="none" stroke-width="1px">800</text><text x="144.578125" y="0" dx="0em" dy="0.95em" style="text-anchor: middle; visibility: hidden; font-family: Roboto, sans-serif; font-size: 12px; font-weight: 200;" fill="rgb(50, 49, 63)" stroke="none" stroke-width="1px">1k</text><text x="168.67447916666669" y="0" dx="0em" dy="0.95em" style="text-anchor: middle; visibility: inherit; font-family: Roboto, sans-serif; font-size: 12px; font-weight: 200;" fill="rgb(50, 49, 63)" stroke="none" stroke-width="1px">1.2k</text><text x="192.77083333333331" y="0" dx="0em" dy="0.95em" style="text-anchor: middle; visibility: hidden; font-family: Roboto, sans-serif; font-size: 12px; font-weight: 200;" fill="rgb(50, 49, 63)" stroke="none" stroke-width="1px">1.4k</text><text x="216.8671875" y="0" dx="0em" dy="0.95em" style="text-anchor: middle; visibility: inherit; font-family: Roboto, sans-serif; font-size: 12px; font-weight: 200;" fill="rgb(50, 49, 63)" stroke="none" stroke-width="1px">1.6k</text><text x="240.96354166666669" y="0" dx="0em" dy="0.95em" style="text-anchor: middle; visibility: hidden; font-family: Roboto, sans-serif; font-size: 12px; font-weight: 200;" fill="rgb(50, 49, 63)" stroke="none" stroke-width="1px">1.8k</text><text x="265.0598958333333" y="0" dx="0em" dy="0.95em" style="text-anchor: middle; visibility: inherit; font-family: Roboto, sans-serif; font-size: 12px; font-weight: 200;" fill="rgb(50, 49, 63)" stroke="none" stroke-width="1px">2k</text><text x="289.15625" y="0" dx="0em" dy="0.95em" style="text-anchor: middle; visibility: hidden; font-family: Roboto, sans-serif; font-size: 12px; font-weight: 200;" fill="rgb(50, 49, 63)" stroke="none" stroke-width="1px">2.2k</text></g><line x1="0" y1="0" x2="289.15625" y2="0" fill="rgb(0, 0, 0)" stroke="rgb(204, 204, 204)" stroke-width="1px"></line></g></g></g></g></svg>