<svg viewBox="0 0 330 200" xmlns="http://www.w3.org/2000/svg"><g><g><g><g><g><line x1="81.96875" y1="175" x2="76.96875" y2="175" style="visibility: inherit;" fill="rgb(0, 0, 0)" stroke="rgb(204, 204, 204)" stroke-width="1px"></line><line x1="81.96875" y1="155.55555555555554" x2="76.96875" y2="155.55555555555554" style="visibility: inherit;" fill="rgb(0, 0, 0)" stroke="rgb(204, 204, 204)" stroke-width="1px"></line><line x1="81.96875" y1="136.11111111111111" x2="76.96875" y2="136.11111111111111" style="visibility: inherit;" fill="rgb(0, 0, 0)" stroke="rgb(204, 204, 204)" stroke-width="1px"></line><line x1="81.96875" y1="116.66666666666669" x2="76.96875" y2="116.66666666666669" style="visibility: inherit;" fill="rgb(0, 0, 0)" stroke="rgb(204, 204, 204)" stroke-width="1px"></line><line x1="81.96875" y1="97.22222222222223" x2="76.96875" y2="97.22222222222223" style="visibility: inherit;" fill="rgb(0, 0, 0)" stroke="rgb(204, 204, 204)" stroke-width="1px"></line><line x1="81.96875" y1="77.77777777777777" x2="76.96875" y2="77.77777777777777" style="visibility: inherit;" fill="rgb(0, 0, 0)" stroke="rgb(204, 204, 204)" stroke-width="1px"></line><line x1="81.96875" y1="58.33333333333334" x2="76.96875" y2="58.33333333333334" style="visibility: inherit;" fill="rgb(0, 0, 0)" stroke="rgb(204, 204, 204)" stroke-width="1px"></line><line x1="81.96875" y1="38.888888888888886" x2="76.96875" y2="38.888888888888886" style="visibility: inherit;" fill="rgb(0, 0, 0)" stroke="rgb(204, 204, 204)" stroke-width="1px"></line><line x1="81.96875" y1="19.444444444444454" x2="76.96875" y2="19.444444444444454" style="visibility: inherit;" fill="rgb(0, 0, 0)" stroke="rgb(204, 204, 204)" stroke-width="1px"></line><line x1="81.96875" y1="0" x2="76.96875" y2="0" style="visibility: inherit;" fill="rgb(0, 0, 0)" stroke="rgb(204, 204, 204)" stroke-width="1px"></line></g><g transform="translate(71.96875, 0)"><text x="0" y="175" dx="0em" dy="0.3em" style="text-anchor: end; visibility: hidden; font-family: Roboto, sans-serif; font-size: 12px; font-weight: 200;" fill="rgb(50, 49, 63)" stroke="none" stroke-width="1px">-1.6e+3</text><text x="0" y="155.55555555555554" dx="0em" dy="0.3em" style="text-anchor: end; visibility: inherit; font-family: Roboto, sans-serif; font-size: 12px; font-weight: 200;" fill="rgb(50, 49, 63)" stroke="none" stroke-width="1px">-1.4e+3</text><text x="0" y="136.11111111111111" dx="0em" dy="0.3em" style="text-anchor: end; visibility: hidden; font-family: Roboto, sans-serif; font-size: 12px; font-weight: 200;" fill="rgb(50, 49, 63)" stroke="none" stroke-width="1px">-1.2e+3</text><text x="0" y="116.66666666666669" dx="0em" dy="0.3em" style="text-anchor: end; visibility: inherit; font-family: Roboto, sans-serif; font-size: 12px; font-weight: 200;" fill="rgb(50, 49, 63)" stroke="none" stroke-width="1px">-1e+3</text><text x="0" y="97.22222222222223" dx="0em" dy="0.3em" style="text-anchor: end; visibility: hidden; font-family: Roboto, sans-serif; font-size: 12px; font-weight: 200;" fill="rgb(50, 49, 63)" stroke="none" stroke-width="1px">-800</text><text x="0" y="77.77777777777777" dx="0em" dy="0.3em" style="text-anchor: end; visibility: inherit; font-family: Roboto, sans-serif; font-size: 12px; font-weight: 200;" fill="rgb(50, 49, 63)" stroke="none" stroke-width="1px">-600</text><text x="0" y="58.33333333333334" dx="0em" dy="0.3em" style="text-anchor: end; visibility: hidden; font-family: Roboto, sans-serif; font-size: 12px; font-weight: 200;" fill="rgb(50, 49, 63)" stroke="none" stroke-width="1px">-400</text><text x="0" y="38.888888888888886" dx="0em" dy="0.3em" style="text-anchor: end; visibility: inherit; font-family: Roboto, sans-serif; font-size: 12px; font-weight: 200;" fill="rgb(50, 49, 63)" stroke="none" stroke-width="1px">-200</text><text x="0" y="19.444444444444454" dx="0em" dy="0.3em" style="text-anchor: end; visibility: hidden; font-family: Roboto, sans-serif; font-size: 12px; font-weight: 200;" fill="rgb(50, 49, 63)" stroke="none" stroke-width="1px">0</text><text x="0" y="0" dx="0em" dy="0.3em" style="text-anchor: end; visibility: hidden; font-family: Roboto, sans-serif; font-size: 12px; font-weight: 200;" fill="rgb(50, 49, 63)" stroke="none" stroke-width="1px">200</text></g><line x1="81.96875" y1="0" x2="81.96875" y2="175" fill="rgb(0, 0, 0)" stroke="rgb(204, 204, 204)" stroke-width="1px"></line></g></g><g transform="translate(81, 0)" clip-path="url(#clip_0)"><clipPath id="clip_0"><rect width="248" height="175"></rect></clipPath><g><g><g><line x1="0" y1="0" x2="0" y2="175" fill="rgb(0, 0, 0)" stroke="rgb(60, 60, 60)" stroke-width="1px" opacity="0.25"></line><line x1="20.669270833333332" y1="0" x2="20.669270833333332" y2="175" fill="rgb(0, 0, 0)" stroke="rgb(60, 60, 60)" stroke-width="1px" opacity="0.25"></line><line x1="41.338541666666664" y1="0" x2="41.338541666666664" y2="175" fill="rgb(0, 0, 0)" stroke="rgb(60, 60, 60)" stroke-width="1px" opacity="0.25"></line><line x1="62.0078125" y1="0" x2="62.0078125" y2="175" fill="rgb(0, 0, 0)" stroke="rgb(60, 60, 60)" stroke-width="1px" opacity="0.25"></line><line x1="82.67708333333333" y1="0" x2="82.67708333333333" y2="175" fill="rgb(0, 0, 0)" stroke="rgb(60, 60, 60)" stroke-width="1px" opacity="0.25"></line><line x1="103.34635416666667" y1="0" x2="103.34635416666667" y2="175" fill="rgb(0, 0, 0)" stroke="rgb(60, 60, 60)" stroke-width="1px" opacity="0.25"></line><line x1="124.015625" y1="0" x2="124.015625" y2="175" fill="rgb(0, 0, 0)" stroke="rgb(60, 60, 60)" stroke-width="1px" opacity="0.25"></line><line x1="144.68489583333334" y1="0" x2="144.68489583333334" y2="175" fill="rgb(0, 0, 0)" stroke="rgb(60, 60, 60)" stroke-width="1px" opacity="0.25"></line><line x1="165.35416666666666" y1="0" x2="165.35416666666666" y2="175" fill="rgb(0, 0, 0)" stroke="rgb(60, 60, 60)" stroke-width="1px" opacity="0.25"></line><line x1="186.0234375" y1="0" x2="186.0234375" y2="175" fill="rgb(0, 0, 0)" stroke="rgb(60, 60, 60)" stroke-width="1px" opacity="0.25"></line><line x1="206.69270833333334" y1="0" x2="206.69270833333334" y2="175" fill="rgb(0, 0, 0)" stroke="rgb(60, 60, 60)" stroke-width="1px" opacity="0.25"></line><line x1="227.36197916666666" y1="0" x2="227.36197916666666" y2="175" fill="rgb(0, 0, 0)" stroke="rgb(60, 60, 60)" stroke-width="1px" opacity="0.25"></line><line x1="248.03125" y1="0" x2="248.03125" y2="175" fill="rgb(0, 0, 0)" stroke="rgb(60, 60, 60)" stroke-width="1px" opacity="0.25"></line></g><g><line x1="0" y1="175" x2="248.03125" y2="175" fill="rgb(0, 0, 0)" stroke="rgb(60, 60, 60)" stroke-width="1px" opacity="0.25"></line><line x1="0" y1="155.55555555555554" x2="248.03125" y2="155.55555555555554" fill="rgb(0, 0, 0)" stroke="rgb(60, 60, 60)" stroke-width="1px" opacity="0.25"></line><line x1="0" y1="136.11111111111111" x2="248.03125" y2="136.11111111111111" fill="rgb(0, 0, 0)" stroke="rgb(60, 60, 60)" stroke-width="1px" opacity="0.25"></line><line x1="0" y1="116.66666666666669" x2="248.03125" y2="116.66666666666669" fill="rgb(0, 0, 0)" stroke="rgb(60, 60, 60)" stroke-width="1px" opacity="0.25"></line><line x1="0" y1="97.22222222222223" x2="248.03125" y2="97.22222222222223" fill="rgb(0, 0, 0)" stroke="rgb(60, 60, 60)" stroke-width="1px" opacity="0.25"></line><line x1="0" y1="77.77777777777777" x2="248.03125" y2="77.77777777777777" fill="rgb(0, 0, 0)" stroke="rgb(60, 60, 60)" stroke-width="1px" opacity="0.25"></line><line x1="0" y1="58.33333333333334" x2="248.03125" y2="58.33333333333334" fill="rgb(0, 0, 0)" stroke="rgb(60, 60, 60)" stroke-width="1px" opacity="0.25"></line><line x1="0" y1="38.888888888888886" x2="248.03125" y2="38.888888888888886" fill="rgb(0, 0, 0)" stroke="rgb(60, 60, 60)" stroke-width="1px" opacity="0.25"></line><line x1="0" y1="19.444444444444454" x2="248.03125" y2="19.444444444444454" fill="rgb(0, 0, 0)" stroke="rgb(60, 60, 60)" stroke-width="1px" opacity="0.25"></line><line x1="0" y1="0" x2="248.03125" y2="0" fill="rgb(0, 0, 0)" stroke="rgb(60, 60, 60)" stroke-width="1px" opacity="0.25"></line></g></g></g><g><g><line x1="0" y1="19.444444444444454" x2="248.03125" y2="19.444444444444454" fill="rgb(0, 0, 0)" stroke="rgb(153, 153, 153)" stroke-width="1.5px"></line></g></g><g><g><line x1="20.669270833333332" y1="0" x2="20.669270833333332" y2="175" fill="rgb(0, 0, 0)" stroke="rgb(153, 153, 153)" stroke-width="1.5px"></line></g></g><g><g><g><g><g><path stroke="rgb(0, 119, 187)" stroke-width="2px" d="M21.186002604166667,178.46616448296442L21.28934895833333,153.46720186869302L21.702734375,167.03809562562003L21.806080729166666,167.355746531019L22.012773437499998,166.46189371980103L22.11611979166667,144.26664133000193L22.219466145833334,154.9828305699667L22.42615885416667,145.84108098115783L22.529505208333333,150.56127008960075L22.6328515625,141.81995402145694L22.736197916666665,130.83789098771496L23.149583333333336,132.45833374827717L24.07970052083333,123.75388194276286L24.183046875000002,116.24350046712587L24.38973958333333,121.86687174641997L24.699778645833334,114.86809809333671L24.803125,119.3694865947404L25.009817708333333,129.44092702435444L25.21651041666667,123.66437646965255L25.319856770833333,127.57092515128804L25.52654947916667,134.38209388421524L25.7332421875,119.70454701531183L25.836588541666668,114.3168812178026L26.146627604166667,114.53311512040611L26.249973958333335,121.09695479072059L26.3533203125,121.7263244471539L26.456666666666667,131.80532809603469L26.560013020833335,132.88426156641157L26.870052083333334,136.86752197629866L26.9733984375,139.99979379903274L27.180091145833334,127.14673601116608L27.386783854166666,124.61865121452574L27.490130208333333,128.67949848556293L27.5934765625,124.67150478976355L27.696822916666665,124.02169558729682L28.006861979166665,128.44317554685463L28.110208333333333,136.39342612926728L28.2135546875,133.79491525992546L28.316901041666668,132.40172264460483L28.52359375,135.04402702562484L28.833632812500003,134.26944464357308L29.350364583333334,145.65216768680386L29.4537109375,147.34375897303082L29.557057291666666,150.51633974851742L29.660403645833334,139.250948324936L29.763749999999998,133.05596789322973L29.86709635416667,135.88992974863066L30.383828125,131.9807982625021L31.210598958333332,139.35546707609018L31.52063802083333,146.2238216953624L31.623984375,136.4153015892185L32.347408854166666,149.48327722635557L32.65744791666666,158.90192515744437L32.864140625000005,156.82737471252L32.967486979166665,149.29717555992914L33.07083333333333,140.22380568860166L33.484218750000004,131.14603674974745L33.587565104166664,133.71192489273076L33.69091145833333,140.42602985425881L34.000950520833335,141.20048689041988L34.104296875,137.89987926532825L34.414335937500006,110.66836858567217L34.82772135416666,123.37624359063956L35.0344140625,133.1622451778213L35.24110677083333,139.7487380300869L35.344453124999994,133.44492356349485L35.44779947916667,140.84435824508475L35.55114583333334,127.53774491124356L35.96453125,138.55705178615585L36.171223958333336,142.29737126266573L36.48126302083334,132.86348169043362L36.584609375,123.31544347932095L36.68795572916667,112.23424764141203L36.894648437499995,116.30117548371872L36.99799479166667,124.26935071666355L37.10134114583334,134.43628151832277L37.411380208333334,141.96075504923152L37.61807291666667,133.28181395076288L37.72141927083333,124.91987063771033L37.928111979166665,134.13403704733972L38.03145833333333,141.0303605150792L38.34149739583333,144.4066121695076L38.85822916666667,142.25872424614903L38.96157552083333,147.20761356244637L39.064921875,132.1223912168949L39.27161458333333,126.87930699033662L39.3749609375,124.04583506225752L39.581653645833335,128.45112232099166L39.78834635416667,136.1524232027078L39.89169270833333,135.08107523238857L39.9950390625,137.58888833062238L40.098385416666666,144.00753764247065L40.305078125,149.6210936304043L40.40842447916666,148.48829881062105L41.131848958333336,136.85856563077365L41.545234375,134.8407015800701L41.95861979166666,133.92434146670524L42.06196614583333,134.591882440787L42.165312500000006,126.60418952306597L42.57869791666666,118.97494216707308L42.888736979166666,125.28773290549559L43.19877604166667,127.48304691560637L43.30212239583334,129.4075703911173L43.61216145833333,122.46917059838565L43.7155078125,116.71962356128834L43.922200520833336,112.17897940478515L44.025546874999996,116.56746658167319L44.128893229166664,107.75735854329643L44.3355859375,116.80422998600392L44.43893229166667,119.83593900614228L44.645624999999995,113.5742477976741L44.74897135416667,114.9663127980706L44.85231770833334,112.64082792135538L45.162356770833334,115.13516644411098L45.47239583333333,111.50861417581986L45.98912760416667,121.21665396556136L46.1958203125,131.20746905034378L46.40251302083333,145.9797670747375L46.505859375,153.88808471858383L47.02259114583333,135.23169591036037L47.332630208333335,138.34405565928046L47.4359765625,141.07216825884953L47.53932291666667,129.9210000655528L47.64266927083333,129.38936490478304L47.849361979166666,133.85196543267014L48.26274739583333,121.6330328972974L48.469440104166665,113.59945644356507L48.6761328125,134.21602152238907L48.882825520833336,127.69678413739177L49.39955729166667,118.80845846257829L49.60625,104.52326647023361L50.01963541666667,105.94445948880248L50.5363671875,103.1583511761374L50.74305989583333,99.47497422022236L50.846406249999994,105.99446397006743L51.1564453125,103.19525626289985L51.36313802083333,108.77879892646821L51.466484375,108.67762108493908L51.56983072916667,110.49855602227422L51.776523437499996,133.52972443367702L51.879869791666664,112.64289060909941L51.98321614583334,104.4967064520482L52.396601562499995,106.08171256480531L52.49994791666667,107.30799563784151L52.706640625,91.12252134781993L53.0166796875,88.1277245735574L53.430065104166665,94.50175952712057L53.53341145833333,95.82417040811261L53.6367578125,94.55395896416009L53.74010416666667,93.71530282804034L53.946796875,99.01900306726691L54.2568359375,125.76602423619349L54.36018229166667,134.57815024050083L54.46352864583333,118.14924033690032L54.77356770833333,108.6213130009683L54.8769140625,131.1837998991053L55.083606770833335,114.44502691483213L55.703684895833334,120.97739483813538L55.91037760416666,115.8187238223691L56.220416666666665,114.09712452508379L56.32376302083333,110.9140917045251L56.53045572916666,99.37088612080532L56.633802083333336,100.30311265935386L57.15053385416667,97.56587706284323L57.253880208333335,98.98276964590906L57.46057291666666,121.80543123741522L57.667265625000006,116.19079454974083L57.77061197916667,112.37386936222296L57.873958333333334,107.95200546878777L58.18399739583334,97.69765693524404L58.28734375,96.01902411991377L58.597382812499994,96.86983088091094L58.70072916666667,95.07067477366375L58.907421875,94.32066854963662L59.010768229166665,93.11846721051113L59.2174609375,124.05785739878932L59.630846354166664,109.7075727834576L59.73419270833334,104.25634807274386L59.8375390625,100.66308042296488L60.044231770833335,92.95913229783275L60.147578124999995,89.56541162967623L60.4576171875,91.34294876003229L60.560963541666666,92.68626716726071L60.664309895833334,94.85520173373317L60.76765625,94.77961002678502L60.97434895833333,89.57923418284619L61.0776953125,86.63151166042385L61.181041666666665,90.59117065456596L61.28438802083333,96.59306773562152L62.214505208333335,92.5142105958L62.317851562499996,124.62319649636888L62.52454427083333,118.9294337805253L62.83458333333334,145.75631546037246L63.558007812499994,124.26214397186152L63.66135416666666,108.57955268628531L64.07473958333334,93.19260194597257L64.1780859375,88.65985607589516L64.28143229166666,91.70400283824544L64.488125,97.29790659932314L64.69481770833333,100.28671277741071L65.108203125,92.37344944650287L66.03832031249999,63.69165449511287L66.14166666666667,64.0219930904054L66.24501302083334,69.46798643584046L66.348359375,78.32173492248518L66.55505208333332,74.59207761527496L66.6583984375,72.27801742962505L66.96843750000001,66.3497165450146L67.2784765625,118.77788683890113L68.00190104166667,88.83387916754968L68.10524739583333,76.25026324407364L68.20859375,120.9460875796907L68.31194010416667,111.11778987691598L68.5186328125,105.33869319969561L68.62197916666666,109.08408207650139L68.72532552083334,78.33236520727235L68.93201822916666,64.8678512329246L69.03536458333333,66.4270160104796L69.1387109375,78.2062913255803L69.34540364583334,79.31991398263116L69.55209635416666,118.26845934878008L69.65544270833333,147.99166642958056L70.068828125,101.91503668229261L70.79225260416666,129.32939039045195L71.10229166666667,90.26657721556728L71.20563802083333,81.74152642781041L71.41233072916667,120.29992277400397L71.6190234375,95.03357864405731L71.9290625,124.52681493817052L73.06587239583332,113.90180470183459L73.37591145833333,90.6288381515044L73.47925781250001,67.03572464044149L73.58260416666667,63.09718399080788L73.78929687499999,107.63757132655938L73.99598958333334,77.29276665084828L74.0993359375,119.38942545274857L74.30602864583332,138.77613370589393L74.82276041666667,100.85164866496973L74.92610677083333,77.88609626481843L75.54618489583333,59.570367865634765L75.75287760416667,48.5446973903878L75.85622395833333,46.398781765667145L75.9595703125,45.70600049114944L76.06291666666667,99.70407379186848L76.16626302083333,72.45295587688703L76.269609375,61.046411045120934L76.37295572916666,54.06385168959968L76.47630208333334,55.04605942684575L76.57964843750001,45.70676697324612L76.68299479166666,101.3041667920206L76.8896875,83.34399672506045L77.1997265625,67.70317453107576L77.30307291666666,53.176233001319595L77.40641927083333,49.76759231950923L77.61311197916667,47.23264859238912L78.02649739583333,36.2062508100118L78.23319010416667,97.37139317263902L78.43988281249999,80.55948497178002L78.85326822916667,65.7559775431266L78.95661458333333,82.44230519449575L79.0599609375,62.11104444956962L79.26665364583333,113.21260580928173L79.47334635416667,80.62285212251835L79.6800390625,65.86503995799994L79.88673177083334,62.06711815204606L79.990078125,49.92536051118207L80.30011718749999,104.58331214546791L80.50680989583333,138.54880388341792L80.61015625,95.78428878112766L80.71350260416668,70.22798853153468L80.81684895833332,109.2586640499104L80.9201953125,78.14536613251512L81.02354166666666,64.2206144718539L81.23023437500001,65.99080102903247L81.33358072916667,47.42366877950787L81.8503125,71.52109172994433L81.95365885416668,110.16748970050999L82.1603515625,83.21297152551976L82.26369791666667,84.10501849745161L82.36704427083333,63.056477793620694L82.67708333333333,60.1422079720166L82.88377604166666,48.64616886551247L83.09046875,97.13213016587868L83.29716145833333,81.40024045439915L83.50385416666667,61.340253245824734L83.710546875,106.11368428256428L83.81389322916667,76.29701496712158L83.91723958333333,92.39004098439621L84.22727864583334,68.07448153203042L84.6406640625,58.27140078580896L84.74401041666667,47.44212060420293L84.950703125,36.2506888986377L85.05404947916666,39.66129116036319L85.2607421875,41.37183115373743L85.67412760416666,32.62248143945549L86.19085937499999,32.33276561402595L86.91428385416667,27.198478561990687L87.01763020833333,82.874994662151L87.22432291666667,116.19301505358399L87.32766927083334,82.45221387495097L87.431015625,62.26273872875204L87.53436197916666,49.74882789572563L87.63770833333334,42.43972523814067L87.7410546875,33.33136570735151L87.94774739583333,86.18687755700638L88.05109374999999,59.51662584313435L88.46447916666668,58.46452211639491L88.56782552083332,52.5465825833949L88.77451822916666,44.09570789828997L88.98121093750001,48.281023473511745L89.29124999999999,41.71971797272466L89.49794270833334,91.61560424826152L89.6012890625,122.20549807413052L89.70463541666668,90.90791018616667L90.01467447916667,67.23087833080267L90.11802083333333,57.91643176329279L90.22136718750001,47.27692903986857L90.32471354166667,45.7561130717076L90.42805989583333,39.892554231167466L90.63475260416666,36.37417533723019L90.73809895833334,29.619226006698312L90.8414453125,25.664830739781948L91.04813802083333,82.0183896819334L91.151484375,102.21196561254544L91.25483072916667,69.22238018961572L91.35817708333333,54.07270724618859L91.4615234375,50.164860682619825L91.56486979166667,43.16101451002221L91.7715625,34.06763962477044L91.87490885416666,33.39475476485249L92.18494791666666,42.64389987632687L92.59833333333334,33.66197626763284L92.90837239583333,33.21473870857774L93.01171875,37.770574826437894L93.11506510416667,89.1571894596648L93.3217578125,61.58798056308222L93.42510416666666,49.565233660521855L93.52845052083333,42.764775809648626L93.631796875,63.13970078581088L93.83848958333334,50.47180180151039L93.94183593749999,47.5960125655525L94.04518229166666,46.22046306911667L94.45856770833333,40.59531486607394L94.871953125,37.0461617318731L94.97529947916667,30.25011667192958L95.1819921875,26.180690739703717L95.28533854166666,28.478707022625414L95.38868489583334,25.056863247316663L95.49203125,80.9429280341105L95.59537760416667,56.51593006600224L95.69872395833333,46.51376433673405L96.00876302083333,40.53425415325571L96.112109375,42.00531269160619L96.73218750000001,91.8600866221252L96.93888020833333,76.80796278056678L97.04222656249999,91.16666752022809L97.14557291666667,67.28915261513706L97.24891927083334,62.633579154531446L97.45561197916668,55.30742401927595L97.76565104166667,46.02656112475459L97.86899739583333,35.59781975830221L98.17903645833333,29.275184534365355L98.2823828125,29.844985607026018L98.38572916666666,30.736343001314133L98.592421875,72.14810191623988L98.79911458333333,109.86439825911891L99.10915364583333,78.33824764382585L99.2125,59.43821940437005L99.41919270833333,52.4314364847444L99.72923177083334,43.90533249055096L99.83257812500001,92.35062272566739L99.93592447916666,67.93741305732969L100.1426171875,100.67435579338219L100.24596354166667,68.2964437826123L100.34930989583334,53.40055765716774L100.55600260416666,39.94881718826087L100.65934895833333,31.890899727904888L100.7626953125,31.888796742192707L101.27942708333333,31.944596930271118L101.69281249999999,36.620596591322396L101.79615885416666,34.49036913270413L102.0028515625,86.80702733357212L102.20954427083333,69.4732143046029L102.41623697916667,49.665710195263955L102.51958333333333,52.05459087817182L102.6229296875,44.04461399684668L102.72627604166667,38.83517789823007L102.82962239583334,41.019710763189345L102.93296875,52.57406739758374L103.13966145833334,44.395200071932415L103.34635416666667,39.12301625965793L103.55304687499999,31.43625627585837L103.8630859375,36.17771217005603L104.06977864583332,34.215123353398084L104.173125,33.00706231872017L104.27647135416666,32.49354220927952L104.68985677083333,42.41942583555035L104.89654947916667,38.31422136843632L104.99989583333334,30.946827247132124L105.20658854166668,31.229941110445615L105.51662760416667,31.481632099264345L105.72332031250001,26.95097677121038L105.82666666666667,38.9245831872922L105.93001302083333,36.11488471529958L106.24005208333334,29.72238128643479L106.55009114583333,30.507400795718826L106.6534375,35.673466407200166L106.86013020833333,87.28897839032705L107.06682291666667,60.45972318330596L107.273515625,57.97042924689764L107.79024739583333,42.96745957450577L107.99694010416667,43.196700499884685L108.10028645833334,92.12645332401935L108.2036328125,63.377712967312L108.30697916666666,50.93835365115544L108.61701822916667,48.35075412727095L109.23709635416667,47.168773433122546L109.44378906249999,46.488776605988974L109.54713541666666,40.653006750675644L109.65048177083334,90.24860404498004L109.753828125,76.54348836150407L109.85717447916667,58.989939265953005L110.27055989583333,101.30134949164645L110.47725260416667,68.90192766301733L110.58059895833334,58.514577397913456L110.89063802083334,43.232370917194196L110.993984375,34.02994205804254L111.09733072916667,38.05416832252628L111.20067708333333,41.589621592202846L111.30402343749999,37.66115176662811L111.51071614583333,35.35164787760384L111.6140625,33.95988606712491L111.71740885416668,86.40722368671594L111.82075520833332,64.42362612792311L112.02744791666666,56.348100898514936L112.33748697916667,51.35278737151999L112.54417968749999,43.52046322321852L112.64752604166667,38.91183330977203L112.85421875,40.57904697343918L112.95756510416668,41.56992116502054L113.26760416666667,37.55898587331516L113.37095052083333,30.610754884500036L113.57764322916667,84.40103477206287L113.68098958333333,63.527981838715164L114.4044140625,60.7550476345876L114.50776041666667,48.990121934024025L114.61110677083333,42.00468992914543L114.714453125,37.772876170961105L114.81779947916667,35.399812781095L114.92114583333333,29.191571815114266L115.0244921875,34.98272279962628L115.23118489583334,28.948163146828634L115.33453125000001,83.31834857169093L115.43787760416666,62.84271702536591L115.74791666666667,95.94214958370912L115.85126302083334,78.71506680236305L115.954609375,60.063890138383975L116.05795572916666,101.97881259865541L116.2646484375,78.93389993847926L116.8847265625,55.32408479947095L116.98807291666667,55.13479816972165L117.09141927083334,55.47060363327829L117.29811197916666,52.46993321810715L117.71149739583333,50.514510657860825L118.02153645833333,47.75563708929657L118.33157552083334,45.47275311675069L118.7449609375,35.21978618723656L119.05499999999999,33.9994867975199L119.15834635416667,38.03531660379405L119.26169270833333,46.80601662243267L119.46838541666668,40.74763339400539L119.57173177083332,42.13831468606143L119.675078125,38.179198528433744L119.98511718750001,35.546576234098545L120.08846354166667,34.14972325375122L120.29515624999999,28.43090943355957L120.50184895833334,34.39813670763466L120.6051953125,43.087113361386365L120.81188802083332,38.67805926981574L121.01858072916667,35.66316071142559L121.12192708333333,43.14809546928155L121.32861979166667,38.6717850701974L121.5353125,40.34741833893921L121.63865885416666,36.81239264527703L121.74200520833334,39.81227503079686L121.8453515625,36.58630126895286L122.155390625,34.87968561095394L122.25873697916667,38.44066316643131L122.36208333333333,45.4970169523219L122.67212239583333,40.228320085537014L122.77546875,49.413179524195485L123.60223958333334,47.31319261306328L123.91227864583333,41.336630862569976L124.015625,37.72040977839267L124.22231770833334,39.88068692741972L124.42901041666667,31.832746726753733L124.53235677083333,36.56992238907958L124.84239583333333,46.34166690729756L124.9457421875,44.97000597662682L125.15243489583335,47.860423589231296L125.25578125,45.4767202417278L125.35912760416666,47.781729844689444L125.46247395833333,41.15983528874457L125.77251302083333,32.67030993490698L126.59928385416666,32.57972375187844L126.70263020833335,36.7547066401787L126.80597656249999,30.071241003421477L127.01266927083333,35.3783551401117L127.21936197916668,29.277113442394224L127.32270833333332,35.17015354652923L127.42605468750001,38.5113403104262L127.63274739583332,44.89595027051137L127.83944010416666,39.52946346437658L127.94278645833334,46.28350534235209L128.0461328125,35.70296744886566L128.356171875,34.239417255886245L128.45951822916666,37.94998910882145L128.56286458333332,30.733574486919647L129.07959635416665,31.240884489108183L129.2862890625,31.468713627696136L129.38963541666666,36.92128385424356L129.59632812499999,30.054506701812247L129.69967447916667,35.41562909704221L129.90636718750002,33.98938808003794L130.5264453125,37.386692303046644L130.62979166666665,43.8756226273792L130.836484375,34.435203977106376L131.04317708333332,33.41201621221869L131.45656250000002,41.868373159134606L131.66325520833334,44.17193314976677L131.86994791666666,34.569071135206144L132.07664062499998,33.553689046141066L132.28333333333333,37.549139578536405L132.49002604166668,35.27605111298014L132.5933723958333,34.170858159378795L132.69671875,38.030271650184574L132.80006510416666,35.57431312981343L132.90341145833335,34.097176446681445L133.316796875,33.34450971864907L133.52348958333334,32.7062526875398L133.62683593749998,32.344636444270314L134.2469140625,41.13357375702442L134.45360677083335,37.49626431714867L134.66029947916667,35.35695989440704L134.76364583333333,34.020917354423105L134.8669921875,28.44863963958849L135.4870703125,35.094259738614205L135.797109375,38.909630828248815L136.00380208333334,35.98754892338159L136.31384114583332,34.322392584416306L136.62388020833333,37.63238360973183L136.7272265625,35.359973090508156L136.93391927083334,34.00866709540732L137.037265625,33.300200630237015L137.14061197916666,33.02160800835056L137.24395833333332,37.62707969351944L137.45065104166667,39.68209015213053L137.55399739583333,41.61312338110038L137.76069010416666,43.185204791735316L137.86403645833332,33.99661888476189L137.9673828125,33.423380859801355L138.277421875,37.49715909381594L138.38076822916665,35.56484819066457L138.5874609375,29.5082745005736L139.41423177083334,30.49937176075538L139.517578125,36.28893970006216L139.62092447916666,45.33561205001778L139.72427083333335,40.419707446753286L140.03430989583333,46.303468178718205L140.13765625,45.438231046933616L140.24100260416668,40.0860067806938L140.55104166666666,41.83490264561896L140.65438802083335,38.12364759797793L140.757734375,35.85560776180326L141.0677734375,43.80629322560409L142.3079296875,44.48549085371098L142.61796875,48.6433008734462L142.82466145833334,37.05775517766143L142.9280078125,34.98501643531865L143.13470052083332,29.027312581367042L143.238046875,30.293806151657662L143.5480859375,30.965945946175815L143.858125,31.40915597034762L143.96147135416666,31.62129051485288L144.06481770833332,31.72484513851514L144.1681640625,36.06916255592811L144.27151041666667,39.76232171161675L144.37485677083333,36.204453548413746L144.478203125,29.576937036090428L144.58154947916665,30.503434475750392L144.7882421875,31.034390668631676L144.99493489583332,31.05216800272795L145.09828124999999,31.22583294173278L145.30497395833333,40.63266078256353L145.51166666666666,37.08376411107188L145.718359375,30.174732303329993L145.82170572916667,30.48857274991793L145.92505208333336,30.96615555689247L146.0283984375,30.96604447447565L146.13174479166665,31.249387070834494L146.23509114583334,31.416663890924625L146.6484765625,26.704831159950583L147.16520833333334,33.53534579883493L147.2685546875,27.981743965873633L147.47524739583335,39.41688604016871L147.57859374999998,36.49363400786317L147.99197916666668,34.592226513387615L148.0953255208333,37.9876834388214L148.198671875,35.42204197857606L148.40536458333335,40.91360336775544L148.71540364583333,41.9811567784115L149.02544270833334,47.43856216329256L149.23213541666667,41.16177773987008L149.43882812500001,37.461562917386665L149.54217447916668,88.41132088845282L149.7488671875,73.52737521536336L149.85221354166666,70.66798966372323L150.16225260416667,59.78730121400543L150.26559895833333,43.69497901354848L150.3689453125,47.206563790236295L150.57563802083334,36.118750381724674L150.678984375,34.31667835674747L150.78233072916666,38.934251229272L150.9890234375,31.139094069927204L151.09236979166667,35.28945229834738L151.19571614583333,29.041135306807217L151.2990625,30.07270779880331L151.40240885416668,30.867488577665235L151.50575520833334,30.90411881289958L152.02248697916667,31.122979371507114L152.12583333333333,31.23210323908808L152.33252604166665,35.57177003061104L152.74591145833332,33.9411512788918L152.84925781249999,28.20072885812042L153.05595052083333,33.52998643460966L153.4693359375,42.311520438782296L153.67602864583336,38.10497667739969L153.88272135416665,35.63578450226231L154.0894140625,34.11040289129878L154.1927604166667,44.201150792396454L154.29610677083332,39.181008722915095L154.399453125,41.39790238001641L154.60614583333333,37.46257256238213L154.91618489583334,30.27610420910315L155.01953125,30.815039119157635L155.22622395833335,35.18954159215429L155.32957031249998,38.63384409252673L155.43291666666667,47.96922213205684L155.639609375,36.6421049153281L156.05299479166666,34.323931051885125L156.2596875,33.004170922594284L156.36303385416664,27.60867749144059L156.5697265625,29.144384478466236L156.67307291666668,29.85426874521235L156.98311197916667,40.49722650320379L157.08645833333333,46.67361378142531L157.60319010416666,40.653861736737134L157.70653645833335,41.47821173266185L157.8098828125,47.656944705883994L157.91322916666667,41.37677536438326L158.119921875,37.55040688665296L158.32661458333334,35.22270552725545L158.4299609375,38.15843961748716L158.53330729166666,35.43083236417448L158.63665364583332,29.05121100260912L158.74,30.002060465565584L158.84334635416667,40.12645770132285L159.15338541666668,36.752457593002354L159.46342447916666,29.861059759859646L159.6701171875,35.52642564066514L159.87680989583333,33.98963307062414L159.98015625,37.67558466889899L160.08350260416665,44.06703886421917L160.18684895833334,39.21275181855865L160.2901953125,36.23107312889558L160.70358072916667,39.42354649235472L161.11696614583332,36.32158382294375L161.32365885416667,34.617186252289486L161.42700520833336,41.381969974843734L161.73704427083334,37.571918080758564L161.840390625,35.31026697123073L161.9437369791667,34.270143964341095L162.25377604166667,33.71306294110465L162.56381510416665,38.034068775947496L162.66716145833334,40.46929914520717L162.7705078125,37.46507541133221L162.97720052083335,35.43173689718994L163.08054687499998,34.345350850743436L163.18389322916667,33.80962453564682L163.49393229166668,28.7297579265476L163.700625,38.184770615574806L163.80397135416666,40.931580414049755L163.90731770833335,37.56402383029834L164.0106640625,35.52924893698652L164.11401041666664,34.41540202671556L164.21735677083333,38.51990687222509L164.42404947916668,31.589079474304153L164.52739583333334,38.68961813542885L164.83743489583333,36.05986878503878L165.35416666666666,29.594442597406214L166.59432291666667,30.503446547348886L166.69766927083333,35.9316107242264L166.801015625,33.877549223639015L166.90436197916668,37.918261644100944L167.31774739583332,35.44971759131896L167.62778645833333,33.92808229598875L167.7311328125,33.16612222847758L167.93782552083334,32.52721172141815L168.041171875,40.33335651961304L168.14451822916666,36.98920916323267L168.24786458333332,34.8540683463147L168.45455729166667,33.25774714996005L168.66125000000002,32.234853105310776L168.76459635416666,40.111284889716416L168.86794270833332,36.70196740769324L169.07463541666667,38.861314281150236L169.17798177083336,42.47920074588199L169.281328125,47.11486724928701L169.48802083333334,45.48618490645695L169.6947135416667,39.9742931633159L170.31479166666665,36.636697251138955L170.521484375,34.761502061078346L171.03821614583333,28.712944944971433L171.1415625,29.91592356115333L171.55494791666666,30.46265376471662L172.0716796875,35.047755053155065L172.17502604166668,33.69564996657186L172.58841145833333,38.23263096708505L173.001796875,40.13282953307761L173.3118359375,45.6820957233188L173.621875,40.1055441652874L173.72522135416668,46.40303851496021L173.82856770833334,44.67324527897939L174.13860677083332,43.91742949431905L174.241953125,45.09269114250072L174.5519921875,44.52811309180467L174.75868489583334,39.41460099242547L174.86203125,40.903635269934455L174.96537760416666,32.34163861001932L175.68880208333334,32.1224666441339L175.7921484375,32.187092267431936L175.89549479166666,36.47345098830747L175.99884114583332,34.341403924622405L176.20553385416667,38.180803149858065L176.30888020833333,35.51357679958281L176.41222656250002,29.148424866170508L176.51557291666666,35.984452868921046L176.61891927083332,34.29364366722124L176.722265625,37.79485473535336L176.82561197916667,35.09554331403101L176.92895833333336,28.910844897634536L177.0323046875,25.1977050151203L177.34234375,33.63967708622061L177.54903645833332,33.02692411400993L178.06576822916665,27.75825014811297L178.16911458333334,33.400310060655976L178.2724609375,27.85945952544498L178.47915364583335,29.325886006811583L179.202578125,30.101788767240713L179.40927083333335,30.812029393021284L179.92600260416668,30.967965833580237L180.02934895833334,31.270026461953716L180.44273437500001,31.449526558324553L180.64942708333334,26.73619178202707L180.7527734375,33.26345206194628L180.95946614583335,27.954455839290606L181.0628125,38.5433874792688L181.26950520833333,35.83725918399954L181.3728515625,38.456806160085065L181.9929296875,40.21327318308445L182.09627604166667,45.871049304815955L182.19962239583333,44.64563475053281L182.71635416666666,39.39361834658976L182.81970052083332,40.87456703795602L183.74981770833332,42.201885354202645L183.85316406249999,42.37252162728939L184.16320312500002,33.265114426949346L184.26654947916666,32.30632826242504L184.36989583333332,32.01490047308001L184.57658854166667,27.04544823871039L184.78328125,29.044125412274628L184.98997395833334,34.61237341359743L185.30001302083332,33.63643361711462L185.403359375,43.25328334057042L185.61005208333333,38.7746364268683L185.71339843750002,35.70609138235255L185.92009114583334,34.00354756012441L186.12678385416666,32.94480902211793L186.23013020833335,32.53684687635127L186.43682291666667,37.07083079562415L186.54016927083333,43.62764540255894L186.9535546875,34.105384728953226L187.05690104166666,37.78257754079531L187.26359375,35.36957907656053L187.36694010416664,43.374398067138564L187.47028645833333,38.593057343090756L187.5736328125,40.607423269651115L187.78032552083334,37.16023889085427L187.88367187499998,30.227524112401383L187.98701822916667,26.03536225402632L188.09036458333333,28.36240082409548L188.50375,29.69151102227574L188.71044270833335,30.663153208960082L188.8137890625,31.134612158869427L188.91713541666667,31.30311523301154L189.123828125,39.691028312712724L189.33052083333334,36.337841754676795L189.53721354166666,39.18052572473533L189.74390625,36.166949917330896L189.84725260416667,34.53601098094323L189.95059895833333,41.929739523136256L190.15729166666668,42.22143259802346L190.26063802083334,42.360175842993755L190.363984375,43.008296311867205L190.46733072916666,38.45809723461653L190.57067708333332,47.21652229476298L190.6740234375,41.03332948064468L190.88071614583333,37.31754924613962L190.9840625,34.960813395068755L191.2941015625,43.08372239847789L191.39744791666666,43.6228829074027L191.60414062499999,38.98310406627323L191.70748697916667,36.12588661816291L192.01752604166666,38.76233099908245L192.12087239583332,35.846892499324674L192.22421875,34.191554409303464L192.32756510416667,33.15155445988601L192.43091145833336,32.55887311240079L192.63760416666665,41.71562917885541L193.05098958333332,37.56481083149131L193.25768229166667,40.05687474623635L193.36102864583333,45.87132543639198L193.46437500000002,49.57214133795281L193.7744140625,42.6620477727424L193.87776041666666,38.20915565373061L194.08445312499998,30.78675088440977L194.49783854166668,39.09311884933075L194.6011848958333,31.322271220313333L194.70453125,35.93520589218151L194.80787760416666,43.5924956056214L195.0145703125,33.982227668991555L195.42795572916668,40.94810769243225L195.53130208333334,46.071958758797024L195.73799479166667,48.15227305394358L195.84134114583333,41.487617121482906L195.94468750000001,47.339708571772135L196.04803385416668,45.56856632009233L196.2547265625,44.828750248734025L196.564765625,49.69659469947912L196.66811197916667,46.84384717002926L196.77145833333333,45.6212197840868L196.8748046875,45.672823762270646L196.97815104166668,49.90960263002948L197.28819010416666,42.680627444784726L197.39153645833332,46.78496795857005L197.804921875,45.528560578608825L197.90826822916668,35.123484772646364L198.1149609375,33.709594717279764L198.21830729166666,32.61658070325196L198.32165364583332,32.24381274418969L198.7350390625,32.07252581247518L199.045078125,37.00561316408015L199.25177083333332,34.94956439096111L199.56180989583333,38.83689137844602L199.66515625000002,31.097857566631657L199.76850260416666,36.34168030603803L199.87184895833332,34.44445308583093L199.9751953125,33.42996115474834L200.18188802083336,32.96438869032622L200.285234375,32.27523461563073L200.38858072916665,36.8716675468578L200.6986197916667,39.1363927434196L200.80196614583332,35.98037033606098L201.00865885416667,45.355184210642676L201.11200520833333,40.187246370298375L201.21535156250002,36.736428480137995L201.525390625,29.848472553962235L201.73208333333335,30.770434121705687L201.83542968749998,31.261177946710493L201.93877604166667,26.56901745076014L202.04212239583333,33.140055998613654L202.765546875,32.50949924654774L202.86889322916664,32.14078950696727L203.17893229166668,37.14958872154149L203.69566406250001,34.999453117975335L204.10904947916666,28.79748767811447L204.3157421875,34.49740206121439L204.52243489583333,33.25307838272474L204.72912760416668,32.66281174114201L204.83247395833334,32.456375653490525L204.9358203125,32.23913402653441L205.03916666666666,40.9265977526177L205.45255208333333,37.208589733045784L205.5558984375,40.58879333228622L205.65924479166668,41.68589759496637L205.8659375,37.8240442366402L205.96928385416666,45.55254828677578L206.07263020833332,45.53347531538144L206.486015625,43.82751359159974L206.69270833333334,38.99454333155489L206.89940104166666,35.78879719305188L207.10609374999999,34.31742809610455L207.20944010416667,33.29246453283364L207.41613281250002,42.37943549324617L207.82951822916667,33.24876134086048L208.0362109375,32.60176238245141L208.13955729166665,32.00202723571813L208.4495963541667,36.54086316828093L208.75963541666667,34.68119438412285L209.17302083333334,38.93788872248759L209.37971354166666,41.04477151948972L209.48305989583335,45.43777803213655L209.79309895833333,46.32219932389348L210.206484375,44.914329166683096L210.30983072916666,34.76184382201916L210.41317708333335,33.42766725716005L210.5165234375,37.25229788440673L210.8265625,34.99661697120392L210.92990885416668,33.6972280545621L211.03325520833334,37.53677326462203L211.23994791666667,35.29784902347049L211.34329427083333,33.80779567540769L211.44664062500001,33.156104475014594L211.65333333333334,27.723811103090878L211.7566796875,24.45395267398271L212.06671875,32.176756810824095L212.17006510416667,32.08195011649663L212.3767578125,43.623077879685326L212.58345052083334,34.06779461920548L212.686796875,33.38677815091781L212.79014322916666,32.76649809375707L213.51356770833334,36.744778244003804L213.6169140625,42.89938159483979L213.72026041666666,33.60280019262418L213.82360677083332,37.40623264310814L214.44368489583334,39.69877151064246L214.54703125,41.170839987006126L214.65037760416666,41.95527625986318L214.75372395833332,42.411787276914L214.85707031249999,38.382248113489986L215.06376302083333,40.25353065791603L215.37380208333332,40.736030375272634L215.68384114583336,36.97399644307266L216.0972265625,43.28048907271208L216.2005729166667,33.838472590817766L216.30391927083332,32.71391559930403L216.407265625,32.045167300188425L216.51061197916667,41.05504634365472L216.71730468750002,45.93754389912905L216.82065104166665,40.34941624222807L217.23403645833335,41.56339213289654L217.54407552083333,42.110663300978125L217.647421875,42.97258753882799L217.9574609375,38.39161234283619L218.06080729166666,35.86638643917609L218.16415364583335,29.369804987109067L218.2675,25.471530929483787L218.37084635416664,32.4577807199624L218.5775390625,27.377086597714168L218.68088541666668,29.381536755449265L218.78423177083334,30.23787107874156L218.88757812499998,30.858477262180905L218.99092447916667,35.468028590924L219.40430989583334,43.727497350680714L219.50765625,34.0980512382965L219.61100260416666,33.18439273265618L219.92104166666667,32.47005883193584L220.127734375,27.339828444871056L220.23108072916668,29.12621554667253L220.33442708333334,37.95112571743494L220.54111979166666,40.01453605668166L220.64446614583332,36.64934650685243L220.7478125,34.75866859001097L220.95450520833333,33.603899706456126L221.0578515625,32.85917129393934L221.367890625,27.57984214258767L221.57458333333332,29.36838859921905L221.78127604166667,34.81595986648131L221.88462239583333,33.51998664410482L222.09131510416665,32.9362018355026L222.40135416666666,37.23160855925511L222.60804687499999,40.098835198487095L222.71139322916667,41.62232407170183L222.81473958333333,32.81129368287911L223.02143229166666,32.20011022970632L223.228125,32.07892513644032L223.33147135416667,31.877769366464356L223.43481770833336,31.861771076258822L223.848203125,36.836125959557364L223.9515494791667,30.024084324732L224.1582421875,30.650325618575085L224.36493489583333,31.19624192062422L224.88166666666666,35.438745569448116L225.29505208333333,38.37298117752497L225.3983984375,35.728350067192075L225.50174479166668,34.278101450634246L225.6050911458333,38.08460463801293L226.84524739583333,41.75598823989326L227.05194010416668,43.187754320889084L227.2586328125,38.76060070925979" style="fill: none;" fill="none"></path></g></g></g></g><g opacity="0.2"><g><g><g><path stroke="rgb(0, 119, 187)" stroke-width="2px" d="M21.186002604166667,178.46616448296442L21.28934895833333,138.46782430013022L21.702734375,180.06615363226996L21.806080729166666,167.72930399576822L22.012773437499998,165.29487948947482L22.11611979166667,113.56261698404948L22.219466145833334,170.3071526421441L22.42615885416667,132.51232231987848L22.529505208333333,157.5226321750217L22.6328515625,128.84011840820312L22.736197916666665,114.46440294053819L23.149583333333336,134.8801795111762L24.07970052083333,110.72562577989366L24.183046875000002,104.99264187282986L24.38973958333333,130.29531860351562L24.699778645833334,104.374873691135L24.803125,126.11966451009116L25.009817708333333,144.54553053114148L25.21651041666667,115.00043063693577L25.319856770833333,133.43039109971787L25.52654947916667,144.59847344292535L25.7332421875,97.68870968288846L25.836588541666668,106.23548889160156L26.146627604166667,114.85746341281467L26.249973958333335,130.94266764322916L26.3533203125,122.67037624782985L26.456666666666667,146.9238077799479L26.560013020833335,134.5026601155599L26.870052083333334,142.8424089219835L26.9733984375,144.69819980197482L27.180091145833334,107.86715359157985L27.386783854166666,120.82652452256946L27.490130208333333,134.77076890733508L27.5934765625,118.65951453314887L27.696822916666665,123.04698181152344L28.006861979166665,135.0753953721788L28.110208333333333,148.3188018798828L28.2135546875,129.89714898003473L28.316901041666668,130.31193372938367L28.52359375,139.00748358832465L28.833632812500003,133.10757107204861L29.350364583333334,162.72625223795575L29.4537109375,149.88114590115018L29.557057291666666,155.27521091037326L29.660403645833334,122.3528611924913L29.763749999999998,123.76349724663628L29.86709635416667,140.140872531467L30.383828125,126.11710103352864L31.210598958333332,150.41747029622394L31.52063802083333,156.52635362413196L31.623984375,121.70252143012154L32.347408854166666,169.08524068196616L32.65744791666666,173.02989705403647L32.864140625000005,153.71554904513889L32.967486979166665,138.0018768310547L33.07083333333333,126.61375088161893L33.484218750000004,117.52938334147136L33.587565104166664,137.56075710720486L33.69091145833333,150.49718729654947L34.000950520833335,142.36217244466144L34.104296875,132.94896782769098L34.414335937500006,69.82110256618924L34.82772135416666,142.43805609809027L35.0344140625,147.84124755859375L35.24110677083333,149.62847730848523L35.344453124999994,123.98920186360677L35.44779947916667,151.94351026746963L35.55114583333334,107.57782491048175L35.96453125,155.0860120985243L36.171223958333336,147.90785047743054L36.48126302083334,118.7126473320855L36.584609375,108.9933861626519L36.68795572916667,95.61245388454861L36.894648437499995,122.40156724717882L36.99799479166667,136.22161356608072L37.10134114583334,149.68667772081164L37.411380208333334,153.2474653455946L37.61807291666667,120.2634023030599L37.72141927083333,112.3769556681315L37.928111979166665,147.95528666178384L38.03145833333333,151.37484571668836L38.34149739583333,149.47098965115018L38.85822916666667,139.03689236111111L38.96157552083333,154.63094753689236L39.064921875,109.4945576985677L39.27161458333333,119.01468065049913L39.3749609375,119.79562717013889L39.581653645833335,135.05905320909287L39.78834635416667,147.7043745252821L39.89169270833333,133.47405327690973L39.9950390625,141.35060797797308L40.098385416666666,153.63551161024307L40.305078125,158.0414276123047L40.40842447916666,146.78910658094617L41.131848958333336,119.41396586100261L41.545234375,131.81390550401474L41.95861979166666,132.549801296658L42.06196614583333,135.59319390190973L42.165312500000006,114.62265014648436L42.57869791666666,107.53107113308376L42.888736979166666,134.75691901312933L43.19877604166667,130.77601793077258L43.30212239583334,132.2943556043837L43.61216145833333,112.06157090928818L43.7155078125,108.09530300564236L43.922200520833336,105.3680131700304L44.025546874999996,123.1501973470052L44.128893229166664,94.54219648573134L44.3355859375,130.3745371500651L44.43893229166667,124.38350253634982L44.645624999999995,104.18171098497179L44.74897135416667,117.05441029866537L44.85231770833334,109.15260060628255L45.162356770833334,118.87667422824435L45.47239583333333,106.06878577338325L45.98912760416667,135.77871365017361L46.1958203125,146.19369167751736L46.40251302083333,168.13821411132812L46.505859375,165.7505611843533L47.02259114583333,107.24711269802518L47.332630208333335,143.0125952826606L47.4359765625,145.16433715820312L47.53932291666667,113.19424777560764L47.64266927083333,128.59191216362845L47.849361979166666,140.54586622450086L48.26274739583333,103.30463409423827L48.469440104166665,101.54909176296658L48.6761328125,165.140869140625L48.882825520833336,117.91792805989583L49.39955729166667,105.47596995035806L49.60625,83.09547848171658L50.01963541666667,108.07624901665581L50.5363671875,98.97918870713977L50.74305989583333,93.94990878634982L50.846406249999994,115.77369859483507L51.1564453125,98.99644470214844L51.36313802083333,117.15411292182075L51.466484375,108.52585432264539L51.56983072916667,113.2299584282769L51.776523437499996,168.07647705078125L51.879869791666664,81.31263987223306L51.98321614583334,92.27743021647136L52.396601562499995,108.45922173394099L52.49994791666667,109.14742024739583L52.706640625,66.84430991278755L53.0166796875,83.63552941216363L53.430065104166665,104.06281195746529L53.53341145833333,97.80778672960069L53.6367578125,92.64864179823134L53.74010416666667,92.45731862386066L53.946796875,106.97455342610677L54.2568359375,165.88655598958331L54.36018229166667,147.79633924696182L54.46352864583333,93.50587548149956L54.77356770833333,94.32942199707031L54.8769140625,165.02753024631076L55.083606770833335,89.3368674384223L55.703684895833334,130.77594672309027L55.91037760416666,108.08071729871962L56.220416666666665,111.51472557915582L56.32376302083333,106.13954247368707L56.53045572916666,82.05607774522569L56.633802083333336,101.70145246717665L57.15053385416667,93.46002366807726L57.253880208333335,101.1081085205078L57.46057291666666,156.03942362467447L57.667265625000006,107.76883951822917L57.77061197916667,106.64848158094617L57.873958333333334,101.319209628635L58.18399739583334,82.31613413492839L58.28734375,93.50107489691841L58.597382812499994,98.14604102240669L58.70072916666667,92.37194061279297L58.907421875,93.19565921359593L59.010768229166665,91.31516520182292L59.2174609375,170.4669426812066L59.630846354166664,88.18214586046005L59.73419270833334,96.07951100667319L59.8375390625,95.27317894829645L60.044231770833335,81.40321011013455L60.147578124999995,84.4748306274414L60.4576171875,94.00925445556642L60.560963541666666,94.7012447781033L60.664309895833334,98.10860358344183L60.76765625,94.66622246636285L60.97434895833333,81.77867041693794L61.0776953125,82.20992787679036L61.181041666666665,96.53065914577908L61.28438802083333,105.59591335720486L62.214505208333335,86.3959248860677L62.317851562499996,172.78667534722223L62.52454427083333,110.38878970675998L62.83458333333334,185.99663798014322L63.558007812499994,92.02088673909505L63.66135416666666,85.055665757921L64.07473958333334,70.11217583550346L64.1780859375,81.86073727077907L64.28143229166666,96.27022298177084L64.488125,105.68876224093968L64.69481770833333,104.7699220445421L65.108203125,80.50355445014105L66.03832031249999,20.66896206802792L66.14166666666667,64.51750098334418L66.24501302083334,77.63697645399306L66.348359375,91.60235765245226L66.55505208333332,68.99759165445964L66.6583984375,68.80692715115016L66.96843750000001,57.45726521809896L67.2784765625,197.42014227973087L68.00190104166667,43.917867660522454L68.10524739583333,57.374839358859596L68.20859375,187.98982408311633L68.31194010416667,96.37534332275392L68.5186328125,96.670048183865L68.62197916666666,114.70216539171007L68.72532552083334,32.204789903428825L68.93201822916666,44.671080271403L69.03536458333333,68.76576317681206L69.1387109375,95.87520429823132L69.34540364583334,80.99034796820746L69.55209635416666,176.69127739800348L69.65544270833333,192.57647705078125L70.068828125,32.80009206136067L70.79225260416666,170.45092095269098L71.10229166666667,31.672357453240284L71.20563802083333,68.95395024617513L71.41233072916667,178.13751729329425L71.6190234375,57.134062449137375L71.9290625,168.7666693793403L73.06587239583332,97.96428934733073L73.37591145833333,55.71938832600912L73.47925781250001,31.646054373847115L73.58260416666667,57.18937301635742L73.78929687499999,174.44815233018664L73.99598958333334,31.77555963728164L74.0993359375,182.53441365559897L74.30602864583332,167.85619608561197L74.82276041666667,43.964921103583436L74.92610677083333,43.43776766459146L75.54618489583333,32.09677526685927L75.75287760416667,32.00619167751736L75.85622395833333,43.179908328586166L75.9595703125,44.66682857937283L76.06291666666667,180.70118374294705L76.16626302083333,31.576279004414868L76.269609375,43.936593797471794L76.37295572916666,43.59001265631781L76.47630208333334,56.51937103271484L76.57964843750001,31.697828292846687L76.68299479166666,184.7002665201823L76.8896875,56.403741624620224L77.1997265625,44.24194124009874L77.30307291666666,31.385820706685383L77.40641927083333,44.65463129679362L77.61311197916667,43.430233001708984L78.02649739583333,19.66665413644579L78.23319010416667,189.11910671657986L78.43988281249999,55.34162267049154L78.85326822916667,43.55071640014649L78.95661458333333,107.47179667154947L79.0599609375,31.61415333218044L79.26665364583333,189.86494784884982L79.47334635416667,31.738221592373314L79.6800390625,43.728321711222335L79.88673177083334,56.37023544311523L79.990078125,31.712724049886067L80.30011718749999,186.5702395968967L80.50680989583333,189.49704149034287L80.61015625,31.637516127692326L80.71350260416668,31.893538157145183L80.81684895833332,167.80467732747394L80.9201953125,31.47541925642226L81.02354166666666,43.333486980862084L81.23023437500001,68.64608086480034L81.33358072916667,19.57297040522098L81.8503125,107.66722615559897L81.95365885416668,168.1370866563585L82.1603515625,42.7811942630344L82.26369791666667,85.4430889553494L82.36704427083333,31.48366673787435L82.67708333333333,55.77080323961046L82.88377604166666,31.402110205756287L83.09046875,169.86107211642795L83.29716145833333,57.802405887179916L83.50385416666667,31.250272432963055L83.710546875,173.27383083767361L83.81389322916667,31.572010993957527L83.91723958333333,116.52958001030817L84.22727864583334,31.601142353481716L84.6406640625,43.56677966647678L84.74401041666667,31.198200331793895L84.950703125,19.463541340289847L85.05404947916666,44.77719455295139L85.2607421875,43.93764114379882L85.67412760416666,19.498456868032612L86.19085937499999,31.89819187588162L86.91428385416667,19.497047983937797L87.01763020833333,166.3897688123915L87.22432291666667,166.1700456407335L87.32766927083334,31.84101210700142L87.431015625,31.978526009453667L87.53436197916666,30.977961646185985L87.63770833333334,31.476071251763234L87.7410546875,19.668826411167778L87.94774739583333,165.4701453314887L88.05109374999999,19.511248272326252L88.46447916666668,56.886366526285805L88.56782552083332,43.66967328389486L88.77451822916666,31.419395870632595L88.98121093750001,54.55899683634439L89.29124999999999,31.87775972154406L89.49794270833334,166.45943366156683L89.6012890625,168.09033881293402L89.70463541666668,43.961528354220924L90.01467447916667,31.715330547756608L90.11802083333333,43.944761912028L90.22136718750001,31.317674954732265L90.32471354166667,43.47488911946615L90.42805989583333,31.097215970357254L90.63475260416666,31.096606996324322L90.73809895833334,19.48680201090044L90.8414453125,19.733237839407398L91.04813802083333,166.54872809516058L91.151484375,132.50232950846353L91.25483072916667,19.738002055221145L91.35817708333333,31.348197831047912L91.4615234375,44.303090837266716L91.56486979166667,32.65524525112576L91.7715625,20.427577296892807L91.87490885416666,32.38542747497559L92.18494791666666,56.517617543538414L92.59833333333334,20.18909085459179L92.90837239583333,32.54388236999512L93.01171875,44.604329003228074L93.11506510416667,166.23711140950522L93.3217578125,20.23416721820831L93.42510416666666,31.53111330668132L93.52845052083333,32.56408903333875L93.631796875,93.70208825005425L93.83848958333334,31.46995332505968L93.94183593749999,43.28232871161566L94.04518229166666,44.15713882446289L94.45856770833333,32.15759256150987L94.871953125,31.722432030571834L94.97529947916667,20.056049082014294L95.1819921875,20.07655184136496L95.28533854166666,31.925731447007916L95.38868489583334,19.924097584353547L95.49203125,164.7720252143012L95.59537760416667,19.87543311383989L95.69872395833333,31.510515742831764L96.00876302083333,31.564988878038186L96.112109375,44.21190049913194L96.73218750000001,166.64224751790363L96.93888020833333,54.22977701822917L97.04222656249999,112.70472462972006L97.14557291666667,31.47288025750054L97.24891927083334,55.65021896362305L97.45561197916668,44.318191316392685L97.76565104166667,32.10526678297255L97.86899739583333,19.95470770862368L98.17903645833333,19.79123169846005L98.2823828125,30.699687216016976L98.38572916666666,32.073379092746315L98.592421875,134.26574028862848L98.79911458333333,166.4388427734375L99.10915364583333,31.049021720886227L99.2125,31.08817704518637L99.41919270833333,41.92126210530599L99.72923177083334,31.116176499260803L99.83257812500001,165.018558078342L99.93592447916666,31.317598554823135L100.1426171875,149.77976989746094L100.24596354166667,19.729575766457447L100.34930989583334,31.05672846900092L100.55600260416666,19.77120648490059L100.65934895833333,19.804023537370885L100.7626953125,31.88564226362441L101.27942708333333,32.028297212388786L101.69281249999999,43.63459608289931L101.79615885416666,31.295027944776752L102.0028515625,165.28201463487414L102.20954427083333,43.47249476114909L102.41623697916667,19.954454031255516L102.51958333333333,55.637911902533645L102.6229296875,32.02964867485893L102.72627604166667,31.021023750305172L102.82962239583334,44.29651006062825L102.93296875,69.90560234917534L103.13966145833334,32.12689908345541L103.34635416666667,31.21474054124621L103.55304687499999,19.90611630015902L103.8630859375,43.28989601135254L104.06977864583332,31.271240128411193L104.173125,31.194970766703292L104.27647135416666,31.723262045118535L104.68985677083333,57.308251274956596L104.89654947916667,32.1564146677653L104.99989583333334,19.89573606517579L105.20658854166668,31.654611905415862L105.51662760416667,31.8591685824924L105.72332031250001,20.15499377912946L105.82666666666667,56.884992811414925L105.93001302083333,31.900337007310664L106.24005208333334,20.133626143137608L106.55009114583333,31.684930059644913L106.6534375,43.4225648244222L106.86013020833333,164.71224636501736L107.06682291666667,20.215840372774334L107.273515625,54.23648834228515L107.79024739583333,20.463005065917972L107.99694010416667,43.54056188795301L108.10028645833334,165.52108256022137L108.2036328125,20.254602432250984L108.30697916666666,32.27931467692058L108.61701822916667,44.469354841444236L109.23709635416667,45.395802391899956L109.44378906249999,45.46878136528863L109.54713541666666,31.899351967705616L109.65048177083334,164.64199998643664L109.753828125,55.98581483629016L109.85717447916667,32.65961562262641L110.27055989583333,164.76846483018664L110.47725260416667,20.302794920073616L110.58059895833334,42.9335520002577L110.89063802083334,20.309061196115277L110.993984375,20.22629876931509L111.09733072916667,44.09050771925185L111.20067708333333,46.89280149671767L111.30402343749999,31.76844702826606L111.51071614583333,31.887392044067383L111.6140625,31.872243351406524L111.71740885416668,165.07823011610242L111.82075520833332,31.448229789733883L112.02744791666666,44.23481305440267L112.33748697916667,43.85981708102756L112.54417968749999,31.771977000766338L112.64752604166667,31.998888439602318L112.85421875,43.07986746893988L112.95756510416668,43.056232452392585L113.26760416666667,31.542582935757103L113.37095052083333,20.188408401277336L113.57764322916667,165.08645460340713L113.68098958333333,32.21840243869357L114.4044140625,56.59564632839627L114.50776041666667,31.342733383178707L114.61110677083333,31.526541921827526L114.714453125,31.425155533684627L114.81779947916667,31.84021769629585L114.92114583333333,19.87921036614313L115.0244921875,43.66944927639432L115.23118489583334,19.896323667632206L115.33453125000001,164.87362670898438L115.43787760416666,32.129269705878365L115.74791666666667,145.59129842122394L115.85126302083334,52.87444263034397L115.954609375,32.08712514241536L116.05795572916666,164.8511962890625L116.2646484375,44.366530948215065L116.8847265625,19.909362090958485L116.98807291666667,54.850868225097656L117.09141927083334,55.97431182861329L117.29811197916666,47.96892759535048L117.71149739583333,47.58137681749131L118.02153645833333,43.6173267364502L118.33157552083334,42.04842715793186L118.7449609375,19.840335792965355L119.05499999999999,32.169037712944885L119.15834635416667,44.089061313205285L119.26169270833333,59.962066650390625L119.46838541666668,31.660058551364468L119.57173177083332,44.224336624145515L119.675078125,32.240524291992195L119.98511718750001,31.597642792595764L120.08846354166667,32.05444378323025L120.29515624999999,19.852688703272083L120.50184895833334,43.348977618747284L120.6051953125,56.12057834201389L120.81188802083332,32.06447813245985L121.01858072916667,31.14081287384033L121.12192708333333,54.37549760606554L121.32861979166667,31.957319471571182L121.5353125,42.86086824205187L121.63865885416666,31.509854104783795L121.74200520833334,44.3120986090766L121.8453515625,31.747340626186794L122.155390625,32.31976212395562L122.25873697916667,43.782129499647354L122.36208333333333,56.08154763115777L122.67212239583333,32.325274785359696L122.77546875,63.190468682183166L123.60223958333334,44.163212246365006L123.91227864583333,32.371788236829964L124.015625,32.296078152126725L124.22231770833334,43.121102650960275L124.42901041666667,19.760836425754754L124.53235677083333,43.67568588256835L124.84239583333333,60.99928368462457L124.9457421875,42.91251458062065L125.15243489583335,52.19605000813802L125.25578125,41.901165220472556L125.35912760416666,51.23924424913194L125.46247395833333,31.22699345482721L125.77251302083333,19.936021904150646L126.59928385416666,32.44384447733561L126.70263020833335,43.01718097262913L126.80597656249999,20.046042548285584L127.01266927083333,43.33902634514703L127.21936197916668,20.125250895818066L127.32270833333332,44.009713702731666L127.42605468750001,43.523120456271705L127.63274739583332,54.47286521063911L127.83944010416666,31.479733255174423L127.94278645833334,56.41456815931532L128.0461328125,19.832160608636016L128.356171875,32.044091966417106L128.45951822916666,43.51584688822429L128.56286458333332,19.908952554066982L129.07959635416665,32.00184949239095L129.2862890625,31.810457335578064L129.38963541666666,45.10013919406466L129.59632812499999,19.754340973165295L129.69967447916667,43.45731268988715L129.90636718750002,31.850026554531524L130.5264453125,42.48264863755967L130.62979166666665,53.60901811387804L130.836484375,20.27457600169711L131.04317708333332,31.877234564887146L131.45656250000002,54.55290857950846L131.66325520833334,47.62727313571507L131.86994791666666,20.164778113365166L132.07664062499998,32.030615912543404L132.28333333333333,43.54231537712945L132.49002604166668,31.866418414645732L132.5933723958333,32.51306872897677L132.69671875,43.81939188639322L132.80006510416666,31.89037534925673L132.90341145833335,31.88147142198351L133.316796875,32.215509626600486L133.52348958333334,31.74886714087593L133.62683593749998,31.80221207936604L134.2469140625,54.316979726155594L134.45360677083335,32.04030015733506L134.66029947916667,32.148003260294594L134.76364583333333,32.01685354444715L134.8669921875,20.090223067336616L135.4870703125,45.06268988715278L135.797109375,44.63268746270074L136.00380208333334,31.604426066080737L136.31384114583332,31.82465807596843L136.62388020833333,42.59737014770507L136.7272265625,31.95135731167264L136.93391927083334,31.981708102756073L137.037265625,32.23750093248156L137.14061197916666,32.60371907552083L137.24395833333332,44.535287221272796L137.45065104166667,42.764605840047196L137.55399739583333,44.50967322455513L137.76069010416666,45.543326907687714L137.86403645833332,20.213740024301746L137.9673828125,32.56352382236057L138.277421875,43.607826444837784L138.38076822916665,32.6663818359375L138.5874609375,20.423413965437156L139.41423177083334,31.9860176510281L139.517578125,44.97329160902236L139.62092447916666,58.90562057495118L139.72427083333335,33.045850541856545L140.03430989583333,55.12910927666558L140.13765625,44.14037534925672L140.24100260416668,32.0576703813341L140.55104166666666,44.45824644300672L140.65438802083335,32.55676502651637L140.757734375,32.453548007541244L141.0677734375,55.732321421305336L142.3079296875,45.504287295871315L142.61796875,54.88001590304904L142.82466145833334,19.679436633984256L142.9280078125,31.875908321804467L143.13470052083332,20.090756800439628L143.238046875,32.193546507093636L143.5480859375,31.974155637953018L143.858125,32.073971006605355L143.96147135416666,31.939492331610786L144.06481770833332,31.880177074008518L144.1681640625,42.585638682047524L144.27151041666667,45.30206044514973L144.37485677083333,30.867651303609204L144.478203125,19.635662267605465L144.58154947916665,31.893180635240352L144.7882421875,31.83082495795356L144.99493489583332,31.078834003872345L145.09828124999999,31.48633035024007L145.30497395833333,54.74290254380967L145.51166666666666,31.76041910383436L145.718359375,19.811184591717197L145.82170572916667,30.959333419799798L145.92505208333336,31.68252976735432L146.0283984375,30.965877850850422L146.13174479166665,31.674400965372715L146.23509114583334,31.667579121059834L146.6484765625,19.637082063489483L147.16520833333334,43.78111775716146L147.2685546875,19.65134121643172L147.47524739583335,56.569599151611335L147.57859374999998,32.10875595940483L147.99197916666668,31.74011527167426L148.0953255208333,43.08086882697211L148.198671875,31.57357978820802L148.40536458333335,49.150945451524514L148.71540364583333,43.58248689439562L149.02544270833334,55.62467024061416L149.23213541666667,31.74660110473633L149.43882812500001,31.911240683661564L149.54217447916668,164.8359578450521L149.7488671875,51.20145670572917L149.85221354166666,66.37891133626303L150.16225260416667,43.46626853942872L150.26559895833333,19.55649571286307L150.3689453125,52.473940955268006L150.57563802083334,19.487030268957227L150.678984375,31.613570319281685L150.78233072916666,45.86061053805881L150.9890234375,19.44635833090999L151.09236979166667,41.514989640977646L151.19571614583333,19.668659819496998L151.2990625,31.620066536797424L151.40240885416668,32.05965974595811L151.50575520833334,30.95906416575114L152.02248697916667,31.451270209418407L152.12583333333333,31.39578904045952L152.33252604166665,42.0812702178955L152.74591145833332,31.495223151312935L152.84925781249999,19.59009522696336L153.05595052083333,41.523872799343536L153.4693359375,55.48382144504124L153.67602864583336,31.79516103532579L153.88272135416665,31.9319962395562L154.0894140625,31.822330474853523L154.1927604166667,59.337272644042976L154.29610677083332,31.650795618693035L154.399453125,44.7232428656684L154.60614583333333,31.559577835930714L154.91618489583334,19.4964016791847L155.01953125,31.623441484239375L155.22622395833335,41.751295301649314L155.32957031249998,43.80029784308539L155.43291666666667,61.972289191352L155.639609375,19.651429090234966L156.05299479166666,30.846670256720643L156.2596875,31.024530728658032L156.36303385416664,19.51543734471004L156.5697265625,31.44794495900472L156.67307291666668,30.919095145331497L156.98311197916667,56.46166314019097L157.08645833333333,55.9381946987576L157.60319010416666,31.624233669704857L157.70653645833335,42.71473672654893L157.8098828125,56.92504416571723L157.91322916666667,31.95652135213217L158.119921875,31.810854170057514L158.32661458333334,31.731153488159176L158.4299609375,42.56204075283473L158.53330729166666,31.339421484205463L158.63665364583332,19.48177896026109L158.74,31.428334660000278L158.84334635416667,55.31305355495877L159.15338541666668,31.691457430521652L159.46342447916666,19.523963010145557L159.6701171875,44.02447446187337L159.87680989583333,31.6844442155626L159.98015625,43.20451206631131L160.08350260416665,53.654220157199426L160.18684895833334,31.931321250067825L160.2901953125,31.758555094401032L160.70358072916667,44.2122565375434L161.11696614583332,31.6686398188273L161.32365885416667,32.060589896308045L161.42700520833336,51.52914555867513L161.73704427083334,31.856840239630806L161.840390625,31.91779030693901L161.9437369791667,32.709959454006615L162.25377604166667,32.87744140625L162.56381510416665,44.51557752821181L162.66716145833334,44.12214469909667L162.7705078125,32.958739810519745L162.97720052083335,32.38172912597656L163.08054687499998,32.71577178107368L163.18389322916667,33.006035063001846L163.49393229166668,21.109958012898772L163.700625,52.367289649115676L163.80397135416666,45.051795111762154L163.90731770833335,32.512688954671226L164.0106640625,32.47708659701877L164.11401041666664,32.74463166130914L164.21735677083333,44.67666414048937L164.42404947916668,21.192838377422753L164.52739583333334,49.34042612711588L164.83743489583333,32.11524475945366L165.35416666666666,19.89630331595738L166.59432291666667,31.866952472262913L166.69766927083333,44.07385698954265L166.801015625,30.796456972757966L166.90436197916668,43.97933027479384L167.31774739583332,31.74690151214599L167.62778645833333,31.645629352993442L167.7311328125,32.02318212721083L167.93782552083334,31.568845960828988L168.041171875,52.04257371690537L168.14451822916666,31.97298812866211L168.24786458333332,31.65135712093777L168.45455729166667,30.863265355428066L168.66125000000002,30.700512038336853L168.76459635416666,51.92593256632487L168.86794270833332,31.587991184658463L169.07463541666667,42.10033459133572L169.17798177083336,47.9060304429796L169.281328125,54.06836700439453L169.48802083333334,43.04316139221191L169.6947135416667,31.70645554860432L170.31479166666665,31.630303382873524L170.521484375,31.948709275987415L171.03821614583333,19.64010927081109L171.1415625,31.720391485426163L171.55494791666666,31.282749070061577L172.0716796875,41.92540698581272L172.17502604166668,31.667492336697055L172.58841145833333,45.03810246785481L173.001796875,42.98312738206651L173.3118359375,54.00599500868056L173.621875,31.74071682824028L173.72522135416668,55.849280039469406L173.82856770833334,42.07855542500814L174.13860677083332,42.78370581732857L174.241953125,46.855583614773224L174.5519921875,43.68124601576064L174.75868489583334,31.744332843356666L174.86203125,43.13718668619792L174.96537760416666,19.49864362014664L175.68880208333334,31.793708695305714L175.7921484375,32.28403070237901L175.89549479166666,42.902989069620766L175.99884114583332,31.143333329094784L176.20553385416667,43.93990198771159L176.30888020833333,31.512737274169922L176.41222656250002,19.600696966052052L176.51557291666666,46.23849487304687L176.61891927083332,31.7574298646715L176.722265625,43.046671337551544L176.82561197916667,31.046576182047524L176.92895833333336,19.633797273039818L177.0323046875,19.62799519134892L177.34234375,46.3026351928711L177.54903645833332,32.10779465569391L178.06576822916665,19.855239199267494L178.16911458333334,41.86339992947049L178.2724609375,19.548183722628487L178.47915364583335,31.5255257288615L179.202578125,31.265642907884395L179.40927083333335,31.877390331692162L179.92600260416668,31.20187049441868L180.02934895833334,31.723117404513896L180.44273437500001,31.71877670288087L180.64942708333334,19.66618961758084L180.7527734375,43.05434248182508L180.95946614583335,19.990961505307087L181.0628125,54.42678493923611L181.26950520833333,31.77806674109565L181.3728515625,42.38612662421333L181.9929296875,42.84797371758355L182.09627604166667,54.357713487413186L182.19962239583333,42.80751291910808L182.71635416666666,31.515593740675186L182.81970052083332,43.09599007500542L183.74981770833332,44.19286282857259L183.85316406249999,42.628476036919494L184.16320312500002,19.604003626439308L184.26654947916666,30.86814901563856L184.36989583333332,31.577758789062496L184.57658854166667,19.59126988715595L184.78328125,32.04214117262099L184.98997395833334,42.9647454155816L185.30001302083332,32.17252392239041L185.403359375,57.67855792575412L185.61005208333333,32.056666056315095L185.71339843750002,31.103273815578877L185.92009114583334,31.449731826782223L186.12678385416666,31.356701215108238L186.23013020833335,31.924903657701282L186.43682291666667,43.87180667453341L186.54016927083333,53.46286731296116L186.9535546875,19.82199371854465L187.05690104166666,43.29836675855849L187.26359375,31.75008138020833L187.36694010416664,55.381626553005646L187.47028645833333,31.42104625701904L187.5736328125,43.628972159491646L187.78032552083334,31.989462322658962L187.88367187499998,19.828451944722065L187.98701822916667,19.747119466463715L188.09036458333333,31.85295867919923L188.50375,31.685176319546173L188.71044270833335,32.120616488986556L188.8137890625,31.841800583733455L188.91713541666667,31.555869844224727L189.123828125,52.27289793226455L189.33052083333334,31.308061917622876L189.53721354166666,43.44455167982314L189.74390625,31.646586206224228L189.84725260416667,32.089602576361756L189.95059895833333,53.02033233642579L190.15729166666668,42.65897221035427L190.26063802083334,42.56829071044922L190.363984375,43.980477015177414L190.46733072916666,31.632798618740512L190.57067708333332,60.35415988498263L190.6740234375,31.75854025946723L190.88071614583333,31.743878894382043L190.9840625,31.425709618462452L191.2941015625,55.26808590359157L191.39744791666666,44.431623670789925L191.60414062499999,32.023435804579L191.70748697916667,31.840060445997455L192.01752604166666,42.71699757046171L192.12087239583332,31.473734749688038L192.22421875,31.708547274271655L192.32756510416667,31.591554535759812L192.43091145833336,31.669851091172962L192.63760416666665,55.45076327853732L193.05098958333332,31.33858331044514L193.25768229166667,43.79497061835395L193.36102864583333,54.59300147162543L193.46437500000002,55.12336519029405L193.7744140625,32.29690742492676L193.87776041666666,31.529817475212948L194.08445312499998,19.653143730428482L194.49783854166668,51.552670796712235L194.6011848958333,19.665999776787217L194.70453125,42.854607899983726L194.80787760416666,55.07843017578126L195.0145703125,19.56682576404677L195.42795572916668,51.39692772759332L195.53130208333334,53.75773535834419L195.73799479166667,51.27274449666341L195.84134114583333,31.490633222791875L195.94468750000001,56.11784574720594L196.04803385416668,42.9118529425727L196.2547265625,43.71902614169651L196.564765625,56.99836137559679L196.66811197916667,42.56472587585449L196.77145833333333,43.787278705173065L196.8748046875,45.75022972954645L196.97815104166668,56.26477093166774L197.28819010416666,31.837164666917595L197.39153645833332,52.94147872924804L197.804921875,43.643949508667L197.90826822916668,19.515871063702633L198.1149609375,31.588759634229877L198.21830729166666,30.977059682210285L198.32165364583332,31.684660805596238L198.7350390625,31.815595414903434L199.045078125,44.405244191487625L199.25177083333332,31.86549123128255L199.56180989583333,44.66788185967339L199.66515625000002,19.48930684891012L199.76850260416666,44.20741441514757L199.87184895833332,31.598612255520283L199.9751953125,31.908223258124462L200.18188802083336,32.26602999369304L200.285234375,31.241503503587516L200.38858072916665,43.766316943698456L200.6986197916667,42.53348053826225L200.80196614583332,31.246336725023056L201.00865885416667,59.41740502251519L201.11200520833333,32.435339609781906L201.21535156250002,31.560201644897464L201.525390625,19.516538664698597L201.73208333333335,32.15337647332086L201.83542968749998,31.99729368421767L201.93877604166667,19.530776706834626L202.04212239583333,42.99661382039388L202.765546875,31.563664118448884L202.86889322916664,31.587724897596566L203.17893229166668,44.66278754340278L203.69566406250001,31.774249712626137L204.10904947916666,19.494539518323204L204.3157421875,43.04727363586426L204.52243489583333,31.38659286499024L204.72912760416668,31.7774117787679L204.83247395833334,32.14672152201335L204.9358203125,31.913271586100258L205.03916666666666,53.95779334174262L205.45255208333333,31.631577703687874L205.5558984375,45.65909873114692L205.65924479166668,43.331553988986535L205.8659375,32.03126419915093L205.96928385416666,57.145304361979164L206.07263020833332,45.50486585828994L206.486015625,41.2685710059272L206.69270833333334,31.745087941487636L206.89940104166666,30.980177985297317L207.10609374999999,32.11037445068359L207.20944010416667,31.755019187927243L207.41613281250002,56.00989193386501L207.82951822916667,19.552750112281903L208.0362109375,31.631263944837777L208.13955729166665,31.10242451561822L208.4495963541667,43.3491170671251L208.75963541666667,31.891691207885746L209.17302083333334,45.322930230034714L209.37971354166666,44.20509571499295L209.48305989583335,52.027287801106766L209.79309895833333,47.648831261528855L210.206484375,42.80252393086752L210.30983072916666,19.533115805023243L210.41317708333335,31.42640240987142L210.5165234375,42.98924382527669L210.8265625,31.613095601399746L210.92990885416668,31.74814467959934L211.03325520833334,43.296091079711914L211.23994791666667,31.939462661743164L211.34329427083333,31.572715653313523L211.44664062500001,32.17856767442492L211.65333333333334,19.57537104520533L211.7566796875,19.549165030320495L212.06671875,43.76096301608616L212.17006510416667,31.93974007500542L212.3767578125,60.93476952446831L212.58345052083334,19.734869728485744L212.686796875,32.365253448486335L212.79014322916666,31.83607800801595L213.51356770833334,42.71219846937392L213.6169140625,52.13128662109375L213.72026041666666,19.657928089300786L213.82360677083332,43.11138131883409L214.44368489583334,43.13757981194391L214.54703125,43.37894270155164L214.65037760416666,43.13193066914876L214.75372395833332,43.096553802490234L214.85707031249999,32.33793936835394L215.06376302083333,43.06045447455513L215.37380208333332,41.4597799513075L215.68384114583336,31.33094554477267L216.0972265625,52.74022801717123L216.2005729166667,19.67544786797629L216.30391927083332,31.027080112033417L216.407265625,31.04204485151502L216.51061197916667,54.56986490885416L216.71730468750002,53.2612902323405L216.82065104166665,31.96722475687663L217.23403645833335,43.3843559688992L217.54407552083333,42.93157005310058L217.647421875,44.26547389560275L217.9574609375,31.52014954884847L218.06080729166666,32.078547583685975L218.16415364583335,19.62493280900849L218.2675,19.62411984304587L218.37084635416664,42.937155405680336L218.5775390625,19.756045414341823L218.68088541666668,32.38821199205186L218.78423177083334,31.522372563680005L218.88757812499998,31.789386537339954L218.99092447916667,42.38235558403862L219.40430989583334,56.11670049031576L219.50765625,19.653882069720154L219.61100260416666,31.813904974195683L219.92104166666667,31.398557980855315L220.127734375,19.644482864273915L220.23108072916668,31.80579619937472L220.33442708333334,51.18849097357856L220.54111979166666,43.10965156555176L220.64446614583332,31.601562182108562L220.7478125,31.922651714748813L220.95450520833333,31.871746381123856L221.0578515625,31.742078675164116L221.367890625,19.66084841556019L221.57458333333332,32.05120828416613L221.78127604166667,42.98731676737468L221.88462239583333,31.576026810540096L222.09131510416665,32.060524622599296L222.40135416666666,43.6747186448839L222.60804687499999,44.39967515733507L222.71139322916667,43.90755738152398L222.81473958333333,19.594748099644978L223.02143229166666,31.28333504994711L223.228125,31.897147496541347L223.33147135416667,31.576035711500385L223.43481770833336,31.837773640950527L223.848203125,44.297658284505204L223.9515494791667,19.806021872493947L224.1582421875,31.58968755933973L224.36493489583333,32.015116373697914L224.88166666666666,41.80250104268393L225.29505208333333,42.7743345896403L225.3983984375,31.761403401692718L225.50174479166668,32.10272852579752L225.6050911458333,43.794359419080955L226.84524739583333,47.26306364271377L227.05194010416668,45.33540344238281L227.2586328125,32.11987029181587" style="fill: none;" fill="none"></path></g></g></g></g></g></g><g transform="translate(81, 175)" clip-path="url(#clip_1)"><clipPath id="clip_1"><rect width="248" height="25"></rect></clipPath><g><g><line x1="0" y1="0" x2="0" y2="5" style="visibility: inherit;" fill="rgb(0, 0, 0)" stroke="rgb(204, 204, 204)" stroke-width="1px"></line><line x1="20.669270833333332" y1="0" x2="20.669270833333332" y2="5" style="visibility: inherit;" fill="rgb(0, 0, 0)" stroke="rgb(204, 204, 204)" stroke-width="1px"></line><line x1="41.338541666666664" y1="0" x2="41.338541666666664" y2="5" style="visibility: inherit;" fill="rgb(0, 0, 0)" stroke="rgb(204, 204, 204)" stroke-width="1px"></line><line x1="62.0078125" y1="0" x2="62.0078125" y2="5" style="visibility: inherit;" fill="rgb(0, 0, 0)" stroke="rgb(204, 204, 204)" stroke-width="1px"></line><line x1="82.67708333333333" y1="0" x2="82.67708333333333" y2="5" style="visibility: inherit;" fill="rgb(0, 0, 0)" stroke="rgb(204, 204, 204)" stroke-width="1px"></line><line x1="103.34635416666667" y1="0" x2="103.34635416666667" y2="5" style="visibility: inherit;" fill="rgb(0, 0, 0)" stroke="rgb(204, 204, 204)" stroke-width="1px"></line><line x1="124.015625" y1="0" x2="124.015625" y2="5" style="visibility: inherit;" fill="rgb(0, 0, 0)" stroke="rgb(204, 204, 204)" stroke-width="1px"></line><line x1="144.68489583333334" y1="0" x2="144.68489583333334" y2="5" style="visibility: inherit;" fill="rgb(0, 0, 0)" stroke="rgb(204, 204, 204)" stroke-width="1px"></line><line x1="165.35416666666666" y1="0" x2="165.35416666666666" y2="5" style="visibility: inherit;" fill="rgb(0, 0, 0)" stroke="rgb(204, 204, 204)" stroke-width="1px"></line><line x1="186.0234375" y1="0" x2="186.0234375" y2="5" style="visibility: inherit;" fill="rgb(0, 0, 0)" stroke="rgb(204, 204, 204)" stroke-width="1px"></line><line x1="206.69270833333334" y1="0" x2="206.69270833333334" y2="5" style="visibility: inherit;" fill="rgb(0, 0, 0)" stroke="rgb(204, 204, 204)" stroke-width="1px"></line><line x1="227.36197916666666" y1="0" x2="227.36197916666666" y2="5" style="visibility: inherit;" fill="rgb(0, 0, 0)" stroke="rgb(204, 204, 204)" stroke-width="1px"></line><line x1="248.03125" y1="0" x2="248.03125" y2="5" style="visibility: inherit;" fill="rgb(0, 0, 0)" stroke="rgb(204, 204, 204)" stroke-width="1px"></line></g><g transform="translate(0, 8)"><text x="0" y="0" dx="0em" dy="0.95em" style="text-anchor: middle; visibility: hidden; font-family: Roboto, sans-serif; font-size: 12px; font-weight: 200;" fill="rgb(50, 49, 63)" stroke="none" stroke-width="1px">-200</text><text x="20.669270833333332" y="0" dx="0em" dy="0.95em" style="text-anchor: middle; visibility: inherit; font-family: Roboto, sans-serif; font-size: 12px; font-weight: 200;" fill="rgb(50, 49, 63)" stroke="none" stroke-width="1px">0</text><text x="41.338541666666664" y="0" dx="0em" dy="0.95em" style="text-anchor: middle; visibility: hidden; font-family: Roboto, sans-serif; font-size: 12px; font-weight: 200;" fill="rgb(50, 49, 63)" stroke="none" stroke-width="1px">200</text><text x="62.0078125" y="0" dx="0em" dy="0.95em" style="text-anchor: middle; visibility: inherit; font-family: Roboto, sans-serif; font-size: 12px; font-weight: 200;" fill="rgb(50, 49, 63)" stroke="none" stroke-width="1px">400</text><text x="82.67708333333333" y="0" dx="0em" dy="0.95em" style="text-anchor: middle; visibility: hidden; font-family: Roboto, sans-serif; font-size: 12px; font-weight: 200;" fill="rgb(50, 49, 63)" stroke="none" stroke-width="1px">600</text><text x="103.34635416666667" y="0" dx="0em" dy="0.95em" style="text-anchor: middle; visibility: inherit; font-family: Roboto, sans-serif; font-size: 12px; font-weight: 200;" fill="rgb(50, 49, 63)" stroke="none" stroke-width="1px">800</text><text x="124.015625" y="0" dx="0em" dy="0.95em" style="text-anchor: middle; visibility: hidden; font-family: Roboto, sans-serif; font-size: 12px; font-weight: 200;" fill="rgb(50, 49, 63)" stroke="none" stroke-width="1px">1k</text><text x="144.68489583333334" y="0" dx="0em" dy="0.95em" style="text-anchor: middle; visibility: inherit; font-family: Roboto, sans-serif; font-size: 12px; font-weight: 200;" fill="rgb(50, 49, 63)" stroke="none" stroke-width="1px">1.2k</text><text x="165.35416666666666" y="0" dx="0em" dy="0.95em" style="text-anchor: middle; visibility: hidden; font-family: Roboto, sans-serif; font-size: 12px; font-weight: 200;" fill="rgb(50, 49, 63)" stroke="none" stroke-width="1px">1.4k</text><text x="186.0234375" y="0" dx="0em" dy="0.95em" style="text-anchor: middle; visibility: inherit; font-family: Roboto, sans-serif; font-size: 12px; font-weight: 200;" fill="rgb(50, 49, 63)" stroke="none" stroke-width="1px">1.6k</text><text x="206.69270833333334" y="0" dx="0em" dy="0.95em" style="text-anchor: middle; visibility: hidden; font-family: Roboto, sans-serif; font-size: 12px; font-weight: 200;" fill="rgb(50, 49, 63)" stroke="none" stroke-width="1px">1.8k</text><text x="227.36197916666666" y="0" dx="0em" dy="0.95em" style="text-anchor: middle; visibility: inherit; font-family: Roboto, sans-serif; font-size: 12px; font-weight: 200;" fill="rgb(50, 49, 63)" stroke="none" stroke-width="1px">2k</text><text x="248.03125" y="0" dx="0em" dy="0.95em" style="text-anchor: middle; visibility: hidden; font-family: Roboto, sans-serif; font-size: 12px; font-weight: 200;" fill="rgb(50, 49, 63)" stroke="none" stroke-width="1px">2.2k</text></g><line x1="0" y1="0" x2="248.03125" y2="0" fill="rgb(0, 0, 0)" stroke="rgb(204, 204, 204)" stroke-width="1px"></line></g></g></g></g></svg>